<svg width="13" height="13" viewBox="0 0 13 13" fill="none" xmlns="http://www.w3.org/2000/svg">
<g clip-path="url(#clip0_1385_6868)">
<path d="M7.99184 1.41865C8.98233 0.428158 10.5883 0.428158 11.5787 1.41865C12.5692 2.40914 12.5692 4.01504 11.5787 5.00554L6.46102 10.1233L6.46099 10.1233C6.15517 10.4291 5.97892 10.6064 5.78233 10.7597C5.55573 10.9365 5.31057 11.088 5.05118 11.2116C4.85424 11.3055 4.64785 11.3772 4.32446 11.4853L1.9666 12.2713L1.96656 12.2713C1.61417 12.3888 1.22569 12.297 0.963046 12.0344L0.962999 12.0344C0.700405 11.7717 0.608661 11.3832 0.726136 11.0308L1.46338 8.819L1.4634 8.81898C1.60018 8.40868 1.67856 8.17129 1.78581 7.94623L1.78583 7.94621C1.90946 7.68683 2.06096 7.44168 2.23767 7.21509L2.23769 7.21507C2.39103 7.01848 2.56832 6.84223 2.87412 6.5364L7.99184 1.41865ZM11.0042 1.99318C10.331 1.31999 9.23955 1.31999 8.56637 1.99318L3.44866 7.11091L3.44865 7.11089C3.12922 7.43034 2.99388 7.56664 2.87836 7.71475C2.73791 7.89484 2.61753 8.08966 2.51929 8.29578C2.44857 8.44417 2.39269 8.60211 2.28414 8.92634L1.49693 11.2878L1.49692 11.2878C1.4768 11.3481 1.49248 11.4147 1.53754 11.4598L1.54183 11.464C1.58676 11.5059 1.65113 11.52 1.70966 11.5005L2.14409 11.3557L2.14411 11.3556L3.92145 10.7632C4.35001 10.6203 4.53206 10.5589 4.70163 10.4781C4.90775 10.3799 5.10255 10.2595 5.28261 10.119C5.43074 10.0035 5.56704 9.86815 5.88651 9.54873L11.0042 4.43101L11.0199 4.41516C11.6774 3.74079 11.6721 2.6611 11.0042 1.99318Z" fill="#4C5EFF"/>
<path opacity="0.5" d="M2.5595 11.4555L1.98498 12.0301L0.96875 11.0138L1.54328 10.4393L2.5595 11.4555ZM8.18241 2.18721C8.18278 2.19153 8.18354 2.19959 8.18486 2.21111C8.1875 2.23418 8.19242 2.271 8.20109 2.31932C8.21847 2.41615 8.25075 2.55811 8.30957 2.72765C8.42721 3.06671 8.64943 3.51199 9.06812 3.93067C9.48681 4.34936 9.93209 4.57157 10.2711 4.6892C10.4407 4.74802 10.5826 4.78031 10.6795 4.79768C10.7278 4.80636 10.7646 4.81127 10.7877 4.81392C10.7992 4.81524 10.8073 4.81599 10.8116 4.81636C10.8131 4.81649 10.8141 4.81656 10.8147 4.8166C10.8145 4.81659 10.8143 4.81658 10.8141 4.81657C10.8139 4.81656 10.8137 4.81655 10.8135 4.81654C10.8135 4.81653 10.8133 4.81652 10.8133 4.81652C10.8132 4.81652 10.8131 4.81652 10.8101 4.86721L10.7681 5.57691C10.7651 5.62653 10.765 5.62757 10.7649 5.62759C10.7648 5.62759 10.7647 5.62757 10.7645 5.62756C10.7643 5.62755 10.764 5.62753 10.7637 5.62751C10.7632 5.62748 10.7625 5.62743 10.7618 5.62739C10.7604 5.62729 10.7587 5.62719 10.7568 5.62705C10.7529 5.62677 10.7481 5.6264 10.7422 5.62589C10.7304 5.62488 10.7146 5.62337 10.6951 5.62113C10.6562 5.61667 10.6023 5.60933 10.5359 5.59741C10.4033 5.5736 10.2197 5.53135 10.0048 5.45681C9.57511 5.30772 9.01626 5.02787 8.49359 4.5052C7.97092 3.98253 7.69106 3.42369 7.54197 2.99397C7.46743 2.77912 7.42518 2.59552 7.40137 2.46289C7.38945 2.39649 7.38211 2.3426 7.37764 2.30364C7.37541 2.28416 7.37389 2.26838 7.37288 2.25661C7.37238 2.25072 7.372 2.24583 7.37172 2.24198C7.37158 2.24005 7.37147 2.23838 7.37137 2.23698C7.37133 2.23628 7.3713 2.23564 7.37126 2.23507C7.37125 2.23479 7.37122 2.23452 7.3712 2.23426C7.37119 2.23414 7.37119 2.23396 7.37118 2.2339C7.3712 2.23373 7.37431 2.23338 7.77672 2.2097C8.18226 2.18583 8.18225 2.18567 8.18224 2.18551C8.18224 2.18546 8.18223 2.18532 8.18222 2.18523C8.18221 2.18504 8.1822 2.18487 8.18219 2.18472C8.18217 2.18441 8.18216 2.18416 8.18214 2.18397C8.18213 2.18379 8.18213 2.18366 8.18213 2.18359C8.18215 2.18384 8.18223 2.18506 8.18241 2.18721ZM10.8148 4.81662C10.8152 4.81664 10.8153 4.81666 10.8152 4.81665C10.8151 4.81664 10.8149 4.81662 10.8147 4.8166C10.8147 4.8166 10.8148 4.81661 10.8148 4.81662Z" fill="#4C5EFF"/>
</g>
<defs>
<clipPath id="clip0_1385_6868">
<rect width="13" height="13" fill="white"/>
</clipPath>
</defs>
</svg>
