<svg width="101" height="32" viewBox="0 0 101 32" fill="none" xmlns="http://www.w3.org/2000/svg">
<rect width="101" height="32" rx="16" fill="#00C7FF"/>
<rect width="101" height="32" rx="16" fill="url(#paint0_linear_1385_6793)"/>
<path d="M16.0746 21.5258V20.0147H25.902V21.5258H16.0746ZM16.0746 18.8813L15.1796 12.818C15.1562 12.818 15.1299 12.8212 15.1007 12.8274C15.0714 12.8337 15.0451 12.8369 15.0217 12.8369C14.7292 12.8369 14.4806 12.7267 14.2759 12.5063C14.0711 12.286 13.9688 12.0184 13.9688 11.7036C13.9688 11.3887 14.0711 11.1212 14.2759 10.9008C14.4806 10.6804 14.7292 10.5702 15.0217 10.5702C15.3142 10.5702 15.5628 10.6804 15.7675 10.9008C15.9722 11.1212 16.0746 11.3887 16.0746 11.7036C16.0746 11.7917 16.0658 11.8736 16.0483 11.9491C16.0307 12.0247 16.0103 12.0939 15.9869 12.1569L18.1805 13.2147L20.3741 9.98467C20.2454 9.88393 20.1401 9.75171 20.0582 9.588C19.9763 9.4243 19.9354 9.248 19.9354 9.05911C19.9354 8.7443 20.0377 8.47671 20.2425 8.25634C20.4472 8.03597 20.6958 7.92578 20.9883 7.92578C21.2808 7.92578 21.5294 8.03597 21.7341 8.25634C21.9389 8.47671 22.0412 8.7443 22.0412 9.05911C22.0412 9.248 22.0003 9.4243 21.9184 9.588C21.8365 9.75171 21.7312 9.88393 21.6025 9.98467L23.7961 13.2147L25.9897 12.1569C25.9663 12.0939 25.9458 12.0247 25.9283 11.9491C25.9107 11.8736 25.902 11.7917 25.902 11.7036C25.902 11.3887 26.0043 11.1212 26.2091 10.9008C26.4138 10.6804 26.6624 10.5702 26.9549 10.5702C27.2474 10.5702 27.496 10.6804 27.7007 10.9008C27.9055 11.1212 28.0078 11.3887 28.0078 11.7036C28.0078 12.0184 27.9055 12.286 27.7007 12.5063C27.496 12.7267 27.2474 12.8369 26.9549 12.8369C26.9315 12.8369 26.9052 12.8337 26.8759 12.8274C26.8467 12.8212 26.8204 12.818 26.797 12.818L25.902 18.8813H16.0746Z" fill="white"/>
<path d="M16.0746 21.5258V20.0147H25.902V21.5258H16.0746ZM16.0746 18.8813L15.1796 12.818C15.1562 12.818 15.1299 12.8212 15.1007 12.8274C15.0714 12.8337 15.0451 12.8369 15.0217 12.8369C14.7292 12.8369 14.4806 12.7267 14.2759 12.5063C14.0711 12.286 13.9688 12.0184 13.9688 11.7036C13.9688 11.3887 14.0711 11.1212 14.2759 10.9008C14.4806 10.6804 14.7292 10.5702 15.0217 10.5702C15.3142 10.5702 15.5628 10.6804 15.7675 10.9008C15.9722 11.1212 16.0746 11.3887 16.0746 11.7036C16.0746 11.7917 16.0658 11.8736 16.0483 11.9491C16.0307 12.0247 16.0103 12.0939 15.9869 12.1569L18.1805 13.2147L20.3741 9.98467C20.2454 9.88393 20.1401 9.75171 20.0582 9.588C19.9763 9.4243 19.9354 9.248 19.9354 9.05911C19.9354 8.7443 20.0377 8.47671 20.2425 8.25634C20.4472 8.03597 20.6958 7.92578 20.9883 7.92578C21.2808 7.92578 21.5294 8.03597 21.7341 8.25634C21.9389 8.47671 22.0412 8.7443 22.0412 9.05911C22.0412 9.248 22.0003 9.4243 21.9184 9.588C21.8365 9.75171 21.7312 9.88393 21.6025 9.98467L23.7961 13.2147L25.9897 12.1569C25.9663 12.0939 25.9458 12.0247 25.9283 11.9491C25.9107 11.8736 25.902 11.7917 25.902 11.7036C25.902 11.3887 26.0043 11.1212 26.2091 10.9008C26.4138 10.6804 26.6624 10.5702 26.9549 10.5702C27.2474 10.5702 27.496 10.6804 27.7007 10.9008C27.9055 11.1212 28.0078 11.3887 28.0078 11.7036C28.0078 12.0184 27.9055 12.286 27.7007 12.5063C27.496 12.7267 27.2474 12.8369 26.9549 12.8369C26.9315 12.8369 26.9052 12.8337 26.8759 12.8274C26.8467 12.8212 26.8204 12.818 26.797 12.818L25.902 18.8813H16.0746Z" fill="url(#paint1_linear_1385_6793)" fill-opacity="0.2"/>
<path d="M33.63 15.7517C33.798 14.781 34.1573 13.9177 34.708 13.1617C35.268 12.3964 35.9633 11.8037 36.794 11.3837C37.6247 10.9544 38.5253 10.7397 39.496 10.7397C40.672 10.7397 41.6147 11.0244 42.324 11.5937C43.0427 12.163 43.4347 12.9517 43.5 13.9597H40.868C40.7467 13.633 40.532 13.3857 40.224 13.2177C39.9253 13.0404 39.5567 12.9517 39.118 12.9517C38.3433 12.9517 37.676 13.2084 37.116 13.7217C36.5653 14.2257 36.2153 14.9024 36.066 15.7517C36.0193 16.0317 35.996 16.2744 35.996 16.4797C35.996 17.1704 36.1967 17.7024 36.598 18.0757C36.9993 18.449 37.5687 18.6357 38.306 18.6357C38.9033 18.6357 39.4307 18.4864 39.888 18.1877C40.3453 17.8797 40.714 17.4457 40.994 16.8857H37.97L38.264 15.1357H43.472L43.08 17.3617C42.8 17.959 42.3987 18.5144 41.876 19.0277C41.3627 19.541 40.7513 19.9564 40.042 20.2737C39.3327 20.591 38.5673 20.7497 37.746 20.7497C36.8967 20.7497 36.15 20.5864 35.506 20.2597C34.8713 19.9237 34.3813 19.457 34.036 18.8597C33.7 18.2624 33.532 17.567 33.532 16.7737C33.532 16.503 33.5647 16.1624 33.63 15.7517ZM48.4941 20.7777C47.6634 20.7777 46.9307 20.605 46.2961 20.2597C45.6707 19.9144 45.1854 19.429 44.8401 18.8037C44.4947 18.1784 44.3221 17.4597 44.3221 16.6477C44.3221 15.4997 44.5694 14.4777 45.0641 13.5817C45.5587 12.6764 46.2447 11.9717 47.1221 11.4677C48.0087 10.9637 49.0121 10.7117 50.1321 10.7117C50.9721 10.7117 51.7094 10.8844 52.3441 11.2297C52.9787 11.5657 53.4687 12.0464 53.8141 12.6717C54.1594 13.2877 54.3321 13.997 54.3321 14.7997C54.3321 15.9477 54.0847 16.979 53.5901 17.8937C53.0954 18.799 52.4047 19.5084 51.5181 20.0217C50.6314 20.5257 49.6234 20.7777 48.4941 20.7777ZM48.8581 18.5657C49.4741 18.5657 50.0154 18.407 50.4821 18.0897C50.9487 17.7724 51.3081 17.3477 51.5601 16.8157C51.8214 16.2744 51.9521 15.691 51.9521 15.0657C51.9521 14.3937 51.7654 13.8664 51.3921 13.4837C51.0187 13.101 50.4961 12.9097 49.8241 12.9097C49.2081 12.9097 48.6621 13.0684 48.1861 13.3857C47.7194 13.703 47.3554 14.1277 47.0941 14.6597C46.8421 15.1824 46.7161 15.761 46.7161 16.3957C46.7161 17.0677 46.9027 17.5997 47.2761 17.9917C47.6494 18.3744 48.1767 18.5657 48.8581 18.5657ZM66.7302 14.0157C66.6368 14.585 66.4175 15.1077 66.0722 15.5837C65.7268 16.0504 65.2555 16.4284 64.6582 16.7177C64.0702 17.007 63.3748 17.1517 62.5722 17.1517H61.0882L60.4582 20.6797H58.0642L59.8002 10.8517H63.6782C64.7048 10.8517 65.4795 11.0804 66.0022 11.5377C66.5248 11.9857 66.7862 12.597 66.7862 13.3717C66.7862 13.605 66.7675 13.8197 66.7302 14.0157ZM62.7122 15.2757C63.6082 15.2757 64.1355 14.8557 64.2942 14.0157C64.3128 13.8664 64.3222 13.759 64.3222 13.6937C64.3222 13.395 64.2242 13.1664 64.0282 13.0077C63.8415 12.8397 63.5522 12.7557 63.1602 12.7557H61.8582L61.4242 15.2757H62.7122ZM72.5545 10.8517C73.5718 10.8517 74.3465 11.085 74.8785 11.5517C75.4105 12.009 75.6765 12.6064 75.6765 13.3437C75.6765 13.5584 75.6578 13.759 75.6205 13.9457C75.5085 14.599 75.2238 15.1824 74.7665 15.6957C74.3092 16.209 73.6978 16.573 72.9325 16.7877L74.5145 20.6797H71.8125L70.4265 16.9697H69.8525L69.1945 20.6797H66.8005L68.5365 10.8517H72.5545ZM73.1705 14.0437C73.1892 13.8944 73.1985 13.7964 73.1985 13.7497C73.1985 13.451 73.1005 13.2224 72.9045 13.0637C72.7178 12.8957 72.4378 12.8117 72.0645 12.8117H70.5805L70.1465 15.2757H71.6305C72.0692 15.2757 72.4145 15.1684 72.6665 14.9537C72.9278 14.739 73.0958 14.4357 73.1705 14.0437ZM80.6093 20.7777C79.7786 20.7777 79.046 20.605 78.4113 20.2597C77.786 19.9144 77.3006 19.429 76.9553 18.8037C76.61 18.1784 76.4373 17.4597 76.4373 16.6477C76.4373 15.4997 76.6846 14.4777 77.1793 13.5817C77.674 12.6764 78.36 11.9717 79.2373 11.4677C80.124 10.9637 81.1273 10.7117 82.2473 10.7117C83.0873 10.7117 83.8246 10.8844 84.4593 11.2297C85.094 11.5657 85.584 12.0464 85.9293 12.6717C86.2746 13.2877 86.4473 13.997 86.4473 14.7997C86.4473 15.9477 86.2 16.979 85.7053 17.8937C85.2106 18.799 84.52 19.5084 83.6333 20.0217C82.7466 20.5257 81.7386 20.7777 80.6093 20.7777ZM80.9733 18.5657C81.5893 18.5657 82.1306 18.407 82.5973 18.0897C83.064 17.7724 83.4233 17.3477 83.6753 16.8157C83.9366 16.2744 84.0673 15.691 84.0673 15.0657C84.0673 14.3937 83.8806 13.8664 83.5073 13.4837C83.134 13.101 82.6113 12.9097 81.9393 12.9097C81.3233 12.9097 80.7773 13.0684 80.3013 13.3857C79.8346 13.703 79.4706 14.1277 79.2093 14.6597C78.9573 15.1824 78.8313 15.761 78.8313 16.3957C78.8313 17.0677 79.018 17.5997 79.3913 17.9917C79.7646 18.3744 80.292 18.5657 80.9733 18.5657Z" fill="white"/>
<defs>
<linearGradient id="paint0_linear_1385_6793" x1="0" y1="16" x2="123.483" y2="32.4595" gradientUnits="userSpaceOnUse">
<stop stop-color="#0077FF" stop-opacity="0"/>
<stop offset="1" stop-color="#0077FF"/>
</linearGradient>
<linearGradient id="paint1_linear_1385_6793" x1="20.4312" y1="12.4591" x2="28.033" y2="12.547" gradientUnits="userSpaceOnUse">
<stop stop-opacity="0"/>
<stop offset="1"/>
</linearGradient>
</defs>
</svg>
