<svg width="40" height="40" viewBox="0 0 40 40" fill="none" xmlns="http://www.w3.org/2000/svg">
<rect width="40" height="40" rx="11" fill="#F1F4FF"/>
<path d="M21 9.25C22.8644 9.25 24.3384 9.24859 25.4893 9.40332C26.6616 9.56096 27.6101 9.89328 28.3584 10.6416C29.1067 11.3899 29.439 12.3384 29.5967 13.5107C29.6504 13.91 29.6834 14.3484 29.7061 14.8281C29.7917 14.8953 29.8752 14.967 29.9541 15.0459C31.0149 16.1066 31.0149 17.826 29.9541 18.8867L29.75 19.0908V22C29.75 23.8644 29.7514 25.3384 29.5967 26.4893C29.439 27.6615 29.1067 28.6101 28.3584 29.3584C27.6101 30.1067 26.6615 30.439 25.4893 30.5967C24.3384 30.7514 22.8644 30.75 21 30.75H19C17.1356 30.75 15.6616 30.7514 14.5107 30.5967C13.3384 30.439 12.3899 30.1067 11.6416 29.3584C10.8933 28.6101 10.561 27.6615 10.4033 26.4893C10.2486 25.3384 10.25 23.8644 10.25 22V18C10.25 16.1356 10.2486 14.6616 10.4033 13.5107C10.561 12.3384 10.8933 11.3899 11.6416 10.6416L11.6768 10.6064C12.4195 9.88269 13.3568 9.55849 14.5107 9.40332C15.6616 9.24859 17.1356 9.25 19 9.25H21ZM19 10.75C17.0932 10.75 15.7386 10.7515 14.7109 10.8896C13.7049 11.0249 13.1254 11.2789 12.7021 11.7021C12.2789 12.1254 12.0249 12.7049 11.8896 13.7109C11.7515 14.7386 11.75 16.0932 11.75 18V22C11.75 23.9067 11.7515 25.2614 11.8896 26.2891C12.0249 27.2952 12.279 27.8747 12.7021 28.2979C13.1254 28.7211 13.7049 28.9751 14.7109 29.1104C15.7386 29.2485 17.0932 29.25 19 29.25H21C22.9067 29.25 24.2614 29.2485 25.2891 29.1104C26.2952 28.9751 26.8747 28.7211 27.2979 28.2979C27.7211 27.8747 27.9751 27.2952 28.1104 26.2891C28.2485 25.2614 28.25 23.9067 28.25 22V20.5908L25.2305 23.6113C24.9546 23.8872 24.773 24.0696 24.5693 24.2285V24.2295C24.3388 24.4092 24.089 24.5627 23.8252 24.6885L23.6465 24.7676C23.4619 24.8428 23.2547 24.9112 22.9766 25.0039L21.3359 25.5508L20.9355 25.6846C20.4755 25.8379 19.9679 25.7179 19.625 25.375C19.2821 25.0321 19.1621 24.5245 19.3154 24.0645L19.4492 23.6641L19.9961 22.0234C20.1196 21.6527 20.2004 21.4081 20.3115 21.1748L20.4111 20.9795C20.5159 20.7873 20.6358 20.6035 20.7705 20.4307H20.7715C20.9304 20.227 21.1128 20.0454 21.3887 19.7695L26.1133 15.0459C26.6775 14.4816 27.4281 14.2198 28.167 14.2559C28.1509 14.0644 28.1335 13.883 28.1104 13.7109C27.9751 12.7049 27.7211 12.1254 27.2979 11.7021C26.8747 11.279 26.2952 11.0249 25.2891 10.8896C24.2614 10.7515 22.9067 10.75 21 10.75H19ZM17.5 24.25C17.9142 24.25 18.25 24.5858 18.25 25C18.25 25.4142 17.9142 25.75 17.5 25.75H16C15.5858 25.75 15.25 25.4142 15.25 25C15.25 24.5858 15.5858 24.25 16 24.25H17.5ZM22.4502 20.8301C22.1496 21.1307 22.0432 21.2384 21.9541 21.3525C21.8412 21.4974 21.744 21.6546 21.665 21.8203C21.6027 21.9513 21.5533 22.0948 21.4189 22.498L21.0186 23.6982L21.3018 23.9805L22.5029 23.5811C22.906 23.4468 23.0487 23.3973 23.1797 23.335C23.3452 23.256 23.5018 23.1587 23.6465 23.0459C23.7608 22.9567 23.8688 22.8509 24.1699 22.5498L27.5664 19.1533C27.2486 18.9864 26.9049 18.7525 26.5762 18.4238C26.2475 18.0951 26.0136 17.7514 25.8467 17.4336L22.4502 20.8301ZM18.5 20.25C18.9142 20.25 19.25 20.5858 19.25 21C19.25 21.4142 18.9142 21.75 18.5 21.75H16C15.5858 21.75 15.25 21.4142 15.25 21C15.25 20.5858 15.5858 20.25 16 20.25H18.5ZM28.2344 15.7676C27.8602 15.7053 27.4625 15.8178 27.1738 16.1064L26.9922 16.2881C27.002 16.3215 27.0134 16.3572 27.0264 16.3945C27.1205 16.6657 27.2993 17.0239 27.6377 17.3623L27.6689 17.3936C27.8631 17.5813 28.0641 17.7155 28.249 17.8145C28.2489 17.0453 28.2459 16.3682 28.2344 15.7676ZM22.5 16.25C22.9142 16.25 23.25 16.5858 23.25 17C23.25 17.4142 22.9142 17.75 22.5 17.75H16C15.5858 17.75 15.25 17.4142 15.25 17C15.25 16.5858 15.5858 16.25 16 16.25H22.5Z" fill="#0077FF"/>
</svg>
