<svg width="40" height="40" viewBox="0 0 40 40" fill="none" xmlns="http://www.w3.org/2000/svg">
<path d="M0 11C0 4.92487 4.92487 0 11 0H29C35.0751 0 40 4.92487 40 11V29C40 35.0751 35.0751 40 29 40H11C4.92487 40 0 35.0751 0 29V11Z" fill="#FFF6E3"/>
<path d="M27.25 16C27.25 14.5646 27.2484 13.5635 27.1468 12.8081C27.0482 12.0744 26.8678 11.6858 26.591 11.409C26.3142 11.1322 25.9256 10.9518 25.1919 10.8532C24.4365 10.7516 23.4354 10.75 22 10.75H18C16.5646 10.75 15.5635 10.7516 14.8081 10.8532C14.0743 10.9518 13.6858 11.1322 13.409 11.409C13.1322 11.6858 12.9518 12.0743 12.8532 12.8081C12.7516 13.5635 12.75 14.5646 12.75 16V24C12.75 25.4354 12.7516 26.4365 12.8532 27.1918C12.9518 27.9256 13.1322 28.3142 13.409 28.591C13.6858 28.8677 14.0744 29.0482 14.8081 29.1469C15.5635 29.2484 16.5646 29.25 18 29.25H22C23.4354 29.25 24.4365 29.2484 25.1919 29.1469C25.9256 29.0482 26.3142 28.8677 26.591 28.591C26.8677 28.3142 27.0482 27.9256 27.1468 27.1918C27.2484 26.4365 27.25 25.4354 27.25 24V16ZM28.75 24C28.75 25.393 28.7516 26.5132 28.6335 27.3917C28.5125 28.2918 28.2535 29.0497 27.6516 29.6516C27.0497 30.2536 26.2918 30.5124 25.3917 30.6335C24.5132 30.7516 23.393 30.75 22 30.75H18C16.607 30.75 15.4868 30.7516 14.6082 30.6335C13.7081 30.5124 12.9503 30.2535 12.3483 29.6516C11.7464 29.0497 11.4875 28.2918 11.3665 27.3917C11.2484 26.5132 11.25 25.393 11.25 24V16C11.25 14.607 11.2484 13.4868 11.3665 12.6082C11.4875 11.7081 11.7464 10.9503 12.3483 10.3483C12.9503 9.74643 13.7081 9.48753 14.6082 9.36651C15.4868 9.2484 16.607 9.25 18 9.25H22C23.393 9.25 24.5132 9.2484 25.3917 9.36651C26.2918 9.48753 27.0497 9.74643 27.6516 10.3483C28.2536 10.9503 28.5125 11.7081 28.6335 12.6082C28.7516 13.4868 28.75 14.607 28.75 16V24Z" fill="#BB7F40"/>
<path d="M27.8996 23.25V24.75H15.8996C14.9213 24.75 14.5793 24.7564 14.3172 24.8266L14.3172 24.8266C13.5408 25.0347 12.9343 25.6412 12.7263 26.4176L11.2773 26.0294C11.6241 24.7354 12.6349 23.7245 13.929 23.3778L13.929 23.3777C14.3673 23.2603 14.8723 23.2506 15.5823 23.25H27.8996Z" fill="#BB7F40"/>
<path opacity="0.5" d="M24 14.25C24.4142 14.25 24.75 14.5858 24.75 15C24.75 15.4142 24.4142 15.75 24 15.75H16C15.5858 15.75 15.25 15.4142 15.25 15C15.25 14.5858 15.5858 14.25 16 14.25H24Z" fill="#BB7F40"/>
<path opacity="0.5" d="M21 17.75C21.4142 17.75 21.75 18.0858 21.75 18.5C21.75 18.9142 21.4142 19.25 21 19.25H16C15.5858 19.25 15.25 18.9142 15.25 18.5C15.25 18.0858 15.5858 17.75 16 17.75H21Z" fill="#BB7F40"/>
<path opacity="0.5" d="M27.5 26.25C27.9142 26.25 28.25 26.5858 28.25 27C28.25 27.4142 27.9142 27.75 27.5 27.75H16C15.5858 27.75 15.25 27.4142 15.25 27C15.25 26.5858 15.5858 26.25 16 26.25H27.5Z" fill="#BB7F40"/>
</svg>
