<svg width="343" height="248" viewBox="0 0 343 248" fill="none" xmlns="http://www.w3.org/2000/svg">
<g clip-path="url(#clip0_1389_6989)">
<rect width="343" height="248" rx="20" fill="white"/>
<rect y="-90" width="375" height="409" fill="white"/>
<rect y="-90" width="375" height="409" fill="url(#paint0_linear_1389_6989)"/>
<path d="M-53.2586 -115.75L144.879 351.751H126.448L-126.984 -115.75H-53.2586Z" fill="url(#paint1_linear_1389_6989)" fill-opacity="0.09"/>
<path d="M51.3842 -114.5L175.16 353.001H163.646L5.32799 -114.5H51.3842Z" fill="url(#paint2_linear_1389_6989)" fill-opacity="0.09"/>
<path d="M127.162 -114.5L185.691 353.001H180.247L105.383 -114.5H127.162Z" fill="url(#paint3_linear_1389_6989)" fill-opacity="0.09"/>
<path d="M-155.848 -114.5L108.016 353.001H83.4702L-254.03 -114.5H-155.848Z" fill="url(#paint4_linear_1389_6989)" fill-opacity="0.09"/>
<path d="M-293.167 -114.5L47.457 353.001H15.7711L-419.911 -114.5H-293.167Z" fill="url(#paint5_linear_1389_6989)" fill-opacity="0.09"/>
<path d="M414.106 -115.75L215.969 351.751H234.4L487.832 -115.75H414.106Z" fill="url(#paint6_linear_1389_6989)" fill-opacity="0.09"/>
<path d="M309.463 -114.5L185.688 353.001H197.202L355.52 -114.5H309.463Z" fill="url(#paint7_linear_1389_6989)" fill-opacity="0.09"/>
<path d="M233.686 -114.5L175.156 353.001H180.601L255.464 -114.5H233.686Z" fill="url(#paint8_linear_1389_6989)" fill-opacity="0.09"/>
<path d="M516.696 -114.5L252.832 353.001H277.377L614.877 -114.5H516.696Z" fill="url(#paint9_linear_1389_6989)" fill-opacity="0.09"/>
<path d="M654.014 -114.5L313.391 353.001H345.077L780.758 -114.5H654.014Z" fill="url(#paint10_linear_1389_6989)" fill-opacity="0.09"/>
<rect opacity="0.5" x="144.324" y="203" width="139" height="98" rx="7" transform="rotate(6.03473 144.324 203)" fill="white"/>
<g opacity="0.7">
<rect x="125.34" y="189.309" width="139" height="98" rx="7" transform="rotate(6.03473 125.34 189.309)" fill="white"/>
<rect x="125.34" y="189.309" width="139" height="98" rx="7" transform="rotate(6.03473 125.34 189.309)" fill="url(#paint11_linear_1389_6989)" fill-opacity="0.2"/>
</g>
<rect opacity="0.5" width="139" height="98" rx="7" transform="matrix(-0.994458 0.105131 0.105131 0.994458 198.25 203)" fill="white"/>
<rect opacity="0.7" width="139" height="98" rx="7" transform="matrix(-0.994458 0.105131 0.105131 0.994458 217.234 189.309)" fill="white"/>
<g filter="url(#filter0_d_1389_6989)">
<rect x="105.02" y="185" width="139" height="115" rx="7" fill="white"/>
<rect x="105.02" y="185" width="139" height="115" rx="7" fill="url(#paint12_linear_1389_6989)" fill-opacity="0.2"/>
</g>
<path d="M132.663 215H130.269L126.265 208.938V215H123.871V205.172H126.265L130.269 211.262V205.172H132.663V215ZM139.327 215.098C138.403 215.098 137.553 214.883 136.779 214.454C136.013 214.025 135.402 213.427 134.945 212.662C134.497 211.887 134.273 211.019 134.273 210.058C134.273 209.097 134.497 208.233 134.945 207.468C135.402 206.703 136.013 206.105 136.779 205.676C137.553 205.247 138.403 205.032 139.327 205.032C140.251 205.032 141.095 205.247 141.861 205.676C142.635 206.105 143.242 206.703 143.681 207.468C144.129 208.233 144.353 209.097 144.353 210.058C144.353 211.019 144.129 211.887 143.681 212.662C143.233 213.427 142.626 214.025 141.861 214.454C141.095 214.883 140.251 215.098 139.327 215.098ZM139.327 212.914C140.111 212.914 140.736 212.653 141.203 212.13C141.679 211.607 141.917 210.917 141.917 210.058C141.917 209.19 141.679 208.499 141.203 207.986C140.736 207.463 140.111 207.202 139.327 207.202C138.533 207.202 137.899 207.459 137.423 207.972C136.956 208.485 136.723 209.181 136.723 210.058C136.723 210.926 136.956 211.621 137.423 212.144C137.899 212.657 138.533 212.914 139.327 212.914ZM150.977 215L148.933 211.29H148.359V215H145.965V205.172H149.983C150.757 205.172 151.415 205.307 151.957 205.578C152.507 205.849 152.918 206.222 153.189 206.698C153.459 207.165 153.595 207.687 153.595 208.266C153.595 208.919 153.408 209.503 153.035 210.016C152.671 210.529 152.129 210.893 151.411 211.108L153.679 215H150.977ZM148.359 209.596H149.843C150.281 209.596 150.608 209.489 150.823 209.274C151.047 209.059 151.159 208.756 151.159 208.364C151.159 207.991 151.047 207.697 150.823 207.482C150.608 207.267 150.281 207.16 149.843 207.16H148.359V209.596ZM154.971 210.072C154.971 209.101 155.181 208.238 155.601 207.482C156.021 206.717 156.605 206.124 157.351 205.704C158.107 205.275 158.961 205.06 159.913 205.06C161.08 205.06 162.079 205.368 162.909 205.984C163.74 206.6 164.295 207.44 164.575 208.504H161.943C161.747 208.093 161.467 207.781 161.103 207.566C160.749 207.351 160.343 207.244 159.885 207.244C159.148 207.244 158.551 207.501 158.093 208.014C157.636 208.527 157.407 209.213 157.407 210.072C157.407 210.931 157.636 211.617 158.093 212.13C158.551 212.643 159.148 212.9 159.885 212.9C160.343 212.9 160.749 212.793 161.103 212.578C161.467 212.363 161.747 212.051 161.943 211.64H164.575C164.295 212.704 163.74 213.544 162.909 214.16C162.079 214.767 161.08 215.07 159.913 215.07C158.961 215.07 158.107 214.86 157.351 214.44C156.605 214.011 156.021 213.418 155.601 212.662C155.181 211.906 154.971 211.043 154.971 210.072ZM168.715 207.09V209.078H171.921V210.926H168.715V213.082H172.341V215H166.321V205.172H172.341V207.09H168.715ZM181.246 205.172V207.09H178.642V215H176.248V207.09H173.644V205.172H181.246ZM185.652 213.082C185.969 212.83 186.114 212.713 186.086 212.732C187.001 211.976 187.719 211.355 188.242 210.87C188.774 210.385 189.222 209.876 189.586 209.344C189.95 208.812 190.132 208.294 190.132 207.79C190.132 207.407 190.043 207.109 189.866 206.894C189.689 206.679 189.423 206.572 189.068 206.572C188.713 206.572 188.433 206.707 188.228 206.978C188.032 207.239 187.934 207.613 187.934 208.098H185.624C185.643 207.305 185.811 206.642 186.128 206.11C186.455 205.578 186.879 205.186 187.402 204.934C187.934 204.682 188.522 204.556 189.166 204.556C190.277 204.556 191.112 204.841 191.672 205.41C192.241 205.979 192.526 206.721 192.526 207.636C192.526 208.635 192.185 209.563 191.504 210.422C190.823 211.271 189.955 212.102 188.9 212.914H192.68V214.86H185.652V213.082ZM194.014 209.75C194.014 208.145 194.322 206.88 194.938 205.956C195.563 205.032 196.567 204.57 197.948 204.57C199.329 204.57 200.328 205.032 200.944 205.956C201.569 206.88 201.882 208.145 201.882 209.75C201.882 211.374 201.569 212.648 200.944 213.572C200.328 214.496 199.329 214.958 197.948 214.958C196.567 214.958 195.563 214.496 194.938 213.572C194.322 212.648 194.014 211.374 194.014 209.75ZM199.53 209.75C199.53 208.807 199.427 208.084 199.222 207.58C199.017 207.067 198.592 206.81 197.948 206.81C197.304 206.81 196.879 207.067 196.674 207.58C196.469 208.084 196.366 208.807 196.366 209.75C196.366 210.385 196.403 210.912 196.478 211.332C196.553 211.743 196.702 212.079 196.926 212.34C197.159 212.592 197.5 212.718 197.948 212.718C198.396 212.718 198.732 212.592 198.956 212.34C199.189 212.079 199.343 211.743 199.418 211.332C199.493 210.912 199.53 210.385 199.53 209.75ZM203.343 213.082C203.66 212.83 203.805 212.713 203.777 212.732C204.691 211.976 205.41 211.355 205.933 210.87C206.465 210.385 206.913 209.876 207.277 209.344C207.641 208.812 207.823 208.294 207.823 207.79C207.823 207.407 207.734 207.109 207.557 206.894C207.379 206.679 207.113 206.572 206.759 206.572C206.404 206.572 206.124 206.707 205.919 206.978C205.723 207.239 205.625 207.613 205.625 208.098H203.315C203.333 207.305 203.501 206.642 203.819 206.11C204.145 205.578 204.57 205.186 205.093 204.934C205.625 204.682 206.213 204.556 206.857 204.556C207.967 204.556 208.803 204.841 209.363 205.41C209.932 205.979 210.217 206.721 210.217 207.636C210.217 208.635 209.876 209.563 209.195 210.422C208.513 211.271 207.645 212.102 206.591 212.914H210.371V214.86H203.343V213.082ZM216.759 207.538C216.684 207.193 216.553 206.936 216.367 206.768C216.18 206.591 215.914 206.502 215.569 206.502C215.037 206.502 214.654 206.735 214.421 207.202C214.187 207.659 214.066 208.387 214.057 209.386C214.262 209.059 214.556 208.803 214.939 208.616C215.331 208.429 215.76 208.336 216.227 208.336C217.141 208.336 217.874 208.625 218.425 209.204C218.985 209.783 219.265 210.59 219.265 211.626C219.265 212.307 219.125 212.905 218.845 213.418C218.574 213.931 218.173 214.333 217.641 214.622C217.118 214.911 216.497 215.056 215.779 215.056C214.341 215.056 213.343 214.608 212.783 213.712C212.223 212.807 211.943 211.509 211.943 209.82C211.943 208.047 212.237 206.731 212.825 205.872C213.422 205.004 214.374 204.57 215.681 204.57C216.381 204.57 216.969 204.71 217.445 204.99C217.93 205.261 218.294 205.62 218.537 206.068C218.789 206.516 218.938 207.006 218.985 207.538H216.759ZM215.653 210.226C215.251 210.226 214.915 210.347 214.645 210.59C214.383 210.823 214.253 211.159 214.253 211.598C214.253 212.046 214.374 212.396 214.617 212.648C214.869 212.9 215.223 213.026 215.681 213.026C216.091 213.026 216.413 212.905 216.647 212.662C216.889 212.41 217.011 212.069 217.011 211.64C217.011 211.201 216.894 210.856 216.661 210.604C216.427 210.352 216.091 210.226 215.653 210.226Z" fill="#FF6A00" fill-opacity="0.34"/>
<path d="M37.112 58.224C35.4693 58.224 33.9973 57.9573 32.696 57.424C31.3947 56.8907 30.3493 56.1013 29.56 55.056C28.792 54.0107 28.3867 52.752 28.344 51.28H34.168C34.2533 52.112 34.5413 52.752 35.032 53.2C35.5227 53.6267 36.1627 53.84 36.952 53.84C37.7627 53.84 38.4027 53.6587 38.872 53.296C39.3413 52.912 39.576 52.3893 39.576 51.728C39.576 51.1733 39.384 50.7147 39 50.352C38.6373 49.9893 38.1787 49.6907 37.624 49.456C37.0907 49.2213 36.3227 48.9547 35.32 48.656C33.8693 48.208 32.6853 47.76 31.768 47.312C30.8507 46.864 30.0613 46.2027 29.4 45.328C28.7387 44.4533 28.408 43.312 28.408 41.904C28.408 39.8133 29.1653 38.1813 30.68 37.008C32.1947 35.8133 34.168 35.216 36.6 35.216C39.0747 35.216 41.0693 35.8133 42.584 37.008C44.0987 38.1813 44.9093 39.824 45.016 41.936H39.096C39.0533 41.2107 38.7867 40.6453 38.296 40.24C37.8053 39.8133 37.176 39.6 36.408 39.6C35.7467 39.6 35.2133 39.7813 34.808 40.144C34.4027 40.4853 34.2 40.9867 34.2 41.648C34.2 42.3733 34.5413 42.9387 35.224 43.344C35.9067 43.7493 36.9733 44.1867 38.424 44.656C39.8747 45.1467 41.048 45.616 41.944 46.064C42.8613 46.512 43.6507 47.1627 44.312 48.016C44.9733 48.8693 45.304 49.968 45.304 51.312C45.304 52.592 44.9733 53.7547 44.312 54.8C43.672 55.8453 42.7333 56.6773 41.496 57.296C40.2587 57.9147 38.7973 58.224 37.112 58.224ZM65.6635 40.144V58H60.1915V55.568C59.6368 56.3573 58.8795 56.9973 57.9195 57.488C56.9808 57.9573 55.9355 58.192 54.7835 58.192C53.4182 58.192 52.2128 57.8933 51.1675 57.296C50.1222 56.6773 49.3115 55.792 48.7355 54.64C48.1595 53.488 47.8715 52.1333 47.8715 50.576V40.144H53.3115V49.84C53.3115 51.0347 53.6208 51.9627 54.2395 52.624C54.8582 53.2853 55.6902 53.616 56.7355 53.616C57.8022 53.616 58.6448 53.2853 59.2635 52.624C59.8822 51.9627 60.1915 51.0347 60.1915 49.84V40.144H65.6635ZM79.834 39.952C81.9247 39.952 83.5887 40.6347 84.826 42C86.0847 43.344 86.714 45.2 86.714 47.568V58H81.274V48.304C81.274 47.1093 80.9647 46.1813 80.346 45.52C79.7273 44.8587 78.8953 44.528 77.85 44.528C76.8047 44.528 75.9727 44.8587 75.354 45.52C74.7353 46.1813 74.426 47.1093 74.426 48.304V58H68.954V40.144H74.426V42.512C74.9807 41.7227 75.7273 41.104 76.666 40.656C77.6047 40.1867 78.6607 39.952 79.834 39.952ZM88.7885 49.04C88.7885 47.2053 89.1298 45.5947 89.8125 44.208C90.5165 42.8213 91.4658 41.7547 92.6605 41.008C93.8552 40.2613 95.1885 39.888 96.6605 39.888C97.8338 39.888 98.9005 40.1333 99.8605 40.624C100.842 41.1147 101.61 41.776 102.165 42.608V34.32H107.637V58H102.165V55.44C101.653 56.2933 100.917 56.976 99.9565 57.488C99.0178 58 97.9192 58.256 96.6605 58.256C95.1885 58.256 93.8552 57.8827 92.6605 57.136C91.4658 56.368 90.5165 55.2907 89.8125 53.904C89.1298 52.496 88.7885 50.8747 88.7885 49.04ZM102.165 49.072C102.165 47.7067 101.781 46.6293 101.013 45.84C100.266 45.0507 99.3485 44.656 98.2605 44.656C97.1725 44.656 96.2445 45.0507 95.4765 45.84C94.7298 46.608 94.3565 47.6747 94.3565 49.04C94.3565 50.4053 94.7298 51.4933 95.4765 52.304C96.2445 53.0933 97.1725 53.488 98.2605 53.488C99.3485 53.488 100.266 53.0933 101.013 52.304C101.781 51.5147 102.165 50.4373 102.165 49.072ZM109.867 49.04C109.867 47.2053 110.209 45.5947 110.891 44.208C111.595 42.8213 112.545 41.7547 113.739 41.008C114.934 40.2613 116.267 39.888 117.739 39.888C118.998 39.888 120.097 40.144 121.035 40.656C121.995 41.168 122.731 41.84 123.243 42.672V40.144H128.715V58H123.243V55.472C122.71 56.304 121.963 56.976 121.003 57.488C120.065 58 118.966 58.256 117.707 58.256C116.257 58.256 114.934 57.8827 113.739 57.136C112.545 56.368 111.595 55.2907 110.891 53.904C110.209 52.496 109.867 50.8747 109.867 49.04ZM123.243 49.072C123.243 47.7067 122.859 46.6293 122.091 45.84C121.345 45.0507 120.427 44.656 119.339 44.656C118.251 44.656 117.323 45.0507 116.555 45.84C115.809 46.608 115.435 47.6747 115.435 49.04C115.435 50.4053 115.809 51.4933 116.555 52.304C117.323 53.0933 118.251 53.488 119.339 53.488C120.427 53.488 121.345 53.0933 122.091 52.304C122.859 51.5147 123.243 50.4373 123.243 49.072ZM150.274 40.144L139.074 66.48H133.186L137.282 57.392L130.018 40.144H136.13L140.258 51.312L144.354 40.144H150.274ZM183.194 35.536V58H177.722V44.528L172.698 58H168.282L163.226 44.496V58H157.754V35.536H164.218L170.522 51.088L176.762 35.536H183.194ZM194.617 58.256C192.868 58.256 191.289 57.8827 189.881 57.136C188.494 56.3893 187.396 55.3227 186.585 53.936C185.796 52.5493 185.401 50.928 185.401 49.072C185.401 47.2373 185.806 45.6267 186.617 44.24C187.428 42.832 188.537 41.7547 189.945 41.008C191.353 40.2613 192.932 39.888 194.681 39.888C196.43 39.888 198.009 40.2613 199.417 41.008C200.825 41.7547 201.934 42.832 202.745 44.24C203.556 45.6267 203.961 47.2373 203.961 49.072C203.961 50.9067 203.545 52.528 202.713 53.936C201.902 55.3227 200.782 56.3893 199.353 57.136C197.945 57.8827 196.366 58.256 194.617 58.256ZM194.617 53.52C195.662 53.52 196.548 53.136 197.273 52.368C198.02 51.6 198.393 50.5013 198.393 49.072C198.393 47.6427 198.03 46.544 197.305 45.776C196.601 45.008 195.726 44.624 194.681 44.624C193.614 44.624 192.729 45.008 192.025 45.776C191.321 46.5227 190.969 47.6213 190.969 49.072C190.969 50.5013 191.31 51.6 191.993 52.368C192.697 53.136 193.572 53.52 194.617 53.52ZM205.136 49.072C205.136 47.216 205.509 45.5947 206.256 44.208C207.024 42.8213 208.08 41.7547 209.424 41.008C210.789 40.2613 212.347 39.888 214.096 39.888C216.336 39.888 218.203 40.4747 219.696 41.648C221.211 42.8213 222.203 44.4747 222.672 46.608H216.848C216.357 45.2427 215.408 44.56 214 44.56C212.997 44.56 212.197 44.9547 211.6 45.744C211.003 46.512 210.704 47.6213 210.704 49.072C210.704 50.5227 211.003 51.6427 211.6 52.432C212.197 53.2 212.997 53.584 214 53.584C215.408 53.584 216.357 52.9013 216.848 51.536H222.672C222.203 53.6267 221.211 55.2693 219.696 56.464C218.181 57.6587 216.315 58.256 214.096 58.256C212.347 58.256 210.789 57.8827 209.424 57.136C208.08 56.3893 207.024 55.3227 206.256 53.936C205.509 52.5493 205.136 50.928 205.136 49.072ZM235.871 58L230.431 50.512V58H224.959V34.32H230.431V47.408L235.839 40.144H242.591L235.167 49.104L242.655 58H235.871ZM266.402 35.536V39.92H260.45V58H254.978V39.92H249.026V35.536H266.402ZM285.34 48.784C285.34 49.296 285.308 49.8293 285.244 50.384H272.86C272.945 51.4933 273.297 52.3467 273.916 52.944C274.556 53.52 275.334 53.808 276.252 53.808C277.617 53.808 278.566 53.232 279.1 52.08H284.924C284.625 53.2533 284.081 54.3093 283.292 55.248C282.524 56.1867 281.553 56.9227 280.38 57.456C279.206 57.9893 277.894 58.256 276.444 58.256C274.694 58.256 273.137 57.8827 271.772 57.136C270.406 56.3893 269.34 55.3227 268.572 53.936C267.804 52.5493 267.42 50.928 267.42 49.072C267.42 47.216 267.793 45.5947 268.54 44.208C269.308 42.8213 270.374 41.7547 271.74 41.008C273.105 40.2613 274.673 39.888 276.444 39.888C278.172 39.888 279.708 40.2507 281.052 40.976C282.396 41.7013 283.441 42.736 284.188 44.08C284.956 45.424 285.34 46.992 285.34 48.784ZM279.74 47.344C279.74 46.4053 279.42 45.6587 278.78 45.104C278.14 44.5493 277.34 44.272 276.38 44.272C275.462 44.272 274.684 44.5387 274.044 45.072C273.425 45.6053 273.041 46.3627 272.892 47.344H279.74ZM294.851 58.256C293.293 58.256 291.907 57.9893 290.691 57.456C289.475 56.9227 288.515 56.1973 287.811 55.28C287.107 54.3413 286.712 53.296 286.627 52.144H292.035C292.099 52.7627 292.387 53.264 292.899 53.648C293.411 54.032 294.04 54.224 294.787 54.224C295.469 54.224 295.992 54.096 296.355 53.84C296.739 53.5627 296.931 53.2107 296.931 52.784C296.931 52.272 296.664 51.8987 296.131 51.664C295.597 51.408 294.733 51.1307 293.539 50.832C292.259 50.5333 291.192 50.224 290.339 49.904C289.485 49.5627 288.749 49.04 288.131 48.336C287.512 47.6107 287.203 46.64 287.203 45.424C287.203 44.4 287.48 43.472 288.035 42.64C288.611 41.7867 289.443 41.1147 290.531 40.624C291.64 40.1333 292.952 39.888 294.467 39.888C296.707 39.888 298.467 40.4427 299.747 41.552C301.048 42.6613 301.795 44.1333 301.987 45.968H296.931C296.845 45.3493 296.568 44.8587 296.099 44.496C295.651 44.1333 295.053 43.952 294.307 43.952C293.667 43.952 293.176 44.08 292.835 44.336C292.493 44.5707 292.323 44.9013 292.323 45.328C292.323 45.84 292.589 46.224 293.123 46.48C293.677 46.736 294.531 46.992 295.683 47.248C297.005 47.5893 298.083 47.9307 298.915 48.272C299.747 48.592 300.472 49.1253 301.091 49.872C301.731 50.5973 302.061 51.5787 302.083 52.816C302.083 53.8613 301.784 54.8 301.187 55.632C300.611 56.4427 299.768 57.0827 298.659 57.552C297.571 58.0213 296.301 58.256 294.851 58.256ZM314.742 53.36V58H311.958C309.974 58 308.428 57.52 307.318 56.56C306.209 55.5787 305.654 53.9893 305.654 51.792V44.688H303.478V40.144H305.654V35.792H311.126V40.144H314.71V44.688H311.126V51.856C311.126 52.3893 311.254 52.7733 311.51 53.008C311.766 53.2427 312.193 53.36 312.79 53.36H314.742Z" fill="#9C1000"/>
<path d="M37.112 58.224C35.4693 58.224 33.9973 57.9573 32.696 57.424C31.3947 56.8907 30.3493 56.1013 29.56 55.056C28.792 54.0107 28.3867 52.752 28.344 51.28H34.168C34.2533 52.112 34.5413 52.752 35.032 53.2C35.5227 53.6267 36.1627 53.84 36.952 53.84C37.7627 53.84 38.4027 53.6587 38.872 53.296C39.3413 52.912 39.576 52.3893 39.576 51.728C39.576 51.1733 39.384 50.7147 39 50.352C38.6373 49.9893 38.1787 49.6907 37.624 49.456C37.0907 49.2213 36.3227 48.9547 35.32 48.656C33.8693 48.208 32.6853 47.76 31.768 47.312C30.8507 46.864 30.0613 46.2027 29.4 45.328C28.7387 44.4533 28.408 43.312 28.408 41.904C28.408 39.8133 29.1653 38.1813 30.68 37.008C32.1947 35.8133 34.168 35.216 36.6 35.216C39.0747 35.216 41.0693 35.8133 42.584 37.008C44.0987 38.1813 44.9093 39.824 45.016 41.936H39.096C39.0533 41.2107 38.7867 40.6453 38.296 40.24C37.8053 39.8133 37.176 39.6 36.408 39.6C35.7467 39.6 35.2133 39.7813 34.808 40.144C34.4027 40.4853 34.2 40.9867 34.2 41.648C34.2 42.3733 34.5413 42.9387 35.224 43.344C35.9067 43.7493 36.9733 44.1867 38.424 44.656C39.8747 45.1467 41.048 45.616 41.944 46.064C42.8613 46.512 43.6507 47.1627 44.312 48.016C44.9733 48.8693 45.304 49.968 45.304 51.312C45.304 52.592 44.9733 53.7547 44.312 54.8C43.672 55.8453 42.7333 56.6773 41.496 57.296C40.2587 57.9147 38.7973 58.224 37.112 58.224ZM65.6635 40.144V58H60.1915V55.568C59.6368 56.3573 58.8795 56.9973 57.9195 57.488C56.9808 57.9573 55.9355 58.192 54.7835 58.192C53.4182 58.192 52.2128 57.8933 51.1675 57.296C50.1222 56.6773 49.3115 55.792 48.7355 54.64C48.1595 53.488 47.8715 52.1333 47.8715 50.576V40.144H53.3115V49.84C53.3115 51.0347 53.6208 51.9627 54.2395 52.624C54.8582 53.2853 55.6902 53.616 56.7355 53.616C57.8022 53.616 58.6448 53.2853 59.2635 52.624C59.8822 51.9627 60.1915 51.0347 60.1915 49.84V40.144H65.6635ZM79.834 39.952C81.9247 39.952 83.5887 40.6347 84.826 42C86.0847 43.344 86.714 45.2 86.714 47.568V58H81.274V48.304C81.274 47.1093 80.9647 46.1813 80.346 45.52C79.7273 44.8587 78.8953 44.528 77.85 44.528C76.8047 44.528 75.9727 44.8587 75.354 45.52C74.7353 46.1813 74.426 47.1093 74.426 48.304V58H68.954V40.144H74.426V42.512C74.9807 41.7227 75.7273 41.104 76.666 40.656C77.6047 40.1867 78.6607 39.952 79.834 39.952ZM88.7885 49.04C88.7885 47.2053 89.1298 45.5947 89.8125 44.208C90.5165 42.8213 91.4658 41.7547 92.6605 41.008C93.8552 40.2613 95.1885 39.888 96.6605 39.888C97.8338 39.888 98.9005 40.1333 99.8605 40.624C100.842 41.1147 101.61 41.776 102.165 42.608V34.32H107.637V58H102.165V55.44C101.653 56.2933 100.917 56.976 99.9565 57.488C99.0178 58 97.9192 58.256 96.6605 58.256C95.1885 58.256 93.8552 57.8827 92.6605 57.136C91.4658 56.368 90.5165 55.2907 89.8125 53.904C89.1298 52.496 88.7885 50.8747 88.7885 49.04ZM102.165 49.072C102.165 47.7067 101.781 46.6293 101.013 45.84C100.266 45.0507 99.3485 44.656 98.2605 44.656C97.1725 44.656 96.2445 45.0507 95.4765 45.84C94.7298 46.608 94.3565 47.6747 94.3565 49.04C94.3565 50.4053 94.7298 51.4933 95.4765 52.304C96.2445 53.0933 97.1725 53.488 98.2605 53.488C99.3485 53.488 100.266 53.0933 101.013 52.304C101.781 51.5147 102.165 50.4373 102.165 49.072ZM109.867 49.04C109.867 47.2053 110.209 45.5947 110.891 44.208C111.595 42.8213 112.545 41.7547 113.739 41.008C114.934 40.2613 116.267 39.888 117.739 39.888C118.998 39.888 120.097 40.144 121.035 40.656C121.995 41.168 122.731 41.84 123.243 42.672V40.144H128.715V58H123.243V55.472C122.71 56.304 121.963 56.976 121.003 57.488C120.065 58 118.966 58.256 117.707 58.256C116.257 58.256 114.934 57.8827 113.739 57.136C112.545 56.368 111.595 55.2907 110.891 53.904C110.209 52.496 109.867 50.8747 109.867 49.04ZM123.243 49.072C123.243 47.7067 122.859 46.6293 122.091 45.84C121.345 45.0507 120.427 44.656 119.339 44.656C118.251 44.656 117.323 45.0507 116.555 45.84C115.809 46.608 115.435 47.6747 115.435 49.04C115.435 50.4053 115.809 51.4933 116.555 52.304C117.323 53.0933 118.251 53.488 119.339 53.488C120.427 53.488 121.345 53.0933 122.091 52.304C122.859 51.5147 123.243 50.4373 123.243 49.072ZM150.274 40.144L139.074 66.48H133.186L137.282 57.392L130.018 40.144H136.13L140.258 51.312L144.354 40.144H150.274ZM183.194 35.536V58H177.722V44.528L172.698 58H168.282L163.226 44.496V58H157.754V35.536H164.218L170.522 51.088L176.762 35.536H183.194ZM194.617 58.256C192.868 58.256 191.289 57.8827 189.881 57.136C188.494 56.3893 187.396 55.3227 186.585 53.936C185.796 52.5493 185.401 50.928 185.401 49.072C185.401 47.2373 185.806 45.6267 186.617 44.24C187.428 42.832 188.537 41.7547 189.945 41.008C191.353 40.2613 192.932 39.888 194.681 39.888C196.43 39.888 198.009 40.2613 199.417 41.008C200.825 41.7547 201.934 42.832 202.745 44.24C203.556 45.6267 203.961 47.2373 203.961 49.072C203.961 50.9067 203.545 52.528 202.713 53.936C201.902 55.3227 200.782 56.3893 199.353 57.136C197.945 57.8827 196.366 58.256 194.617 58.256ZM194.617 53.52C195.662 53.52 196.548 53.136 197.273 52.368C198.02 51.6 198.393 50.5013 198.393 49.072C198.393 47.6427 198.03 46.544 197.305 45.776C196.601 45.008 195.726 44.624 194.681 44.624C193.614 44.624 192.729 45.008 192.025 45.776C191.321 46.5227 190.969 47.6213 190.969 49.072C190.969 50.5013 191.31 51.6 191.993 52.368C192.697 53.136 193.572 53.52 194.617 53.52ZM205.136 49.072C205.136 47.216 205.509 45.5947 206.256 44.208C207.024 42.8213 208.08 41.7547 209.424 41.008C210.789 40.2613 212.347 39.888 214.096 39.888C216.336 39.888 218.203 40.4747 219.696 41.648C221.211 42.8213 222.203 44.4747 222.672 46.608H216.848C216.357 45.2427 215.408 44.56 214 44.56C212.997 44.56 212.197 44.9547 211.6 45.744C211.003 46.512 210.704 47.6213 210.704 49.072C210.704 50.5227 211.003 51.6427 211.6 52.432C212.197 53.2 212.997 53.584 214 53.584C215.408 53.584 216.357 52.9013 216.848 51.536H222.672C222.203 53.6267 221.211 55.2693 219.696 56.464C218.181 57.6587 216.315 58.256 214.096 58.256C212.347 58.256 210.789 57.8827 209.424 57.136C208.08 56.3893 207.024 55.3227 206.256 53.936C205.509 52.5493 205.136 50.928 205.136 49.072ZM235.871 58L230.431 50.512V58H224.959V34.32H230.431V47.408L235.839 40.144H242.591L235.167 49.104L242.655 58H235.871ZM266.402 35.536V39.92H260.45V58H254.978V39.92H249.026V35.536H266.402ZM285.34 48.784C285.34 49.296 285.308 49.8293 285.244 50.384H272.86C272.945 51.4933 273.297 52.3467 273.916 52.944C274.556 53.52 275.334 53.808 276.252 53.808C277.617 53.808 278.566 53.232 279.1 52.08H284.924C284.625 53.2533 284.081 54.3093 283.292 55.248C282.524 56.1867 281.553 56.9227 280.38 57.456C279.206 57.9893 277.894 58.256 276.444 58.256C274.694 58.256 273.137 57.8827 271.772 57.136C270.406 56.3893 269.34 55.3227 268.572 53.936C267.804 52.5493 267.42 50.928 267.42 49.072C267.42 47.216 267.793 45.5947 268.54 44.208C269.308 42.8213 270.374 41.7547 271.74 41.008C273.105 40.2613 274.673 39.888 276.444 39.888C278.172 39.888 279.708 40.2507 281.052 40.976C282.396 41.7013 283.441 42.736 284.188 44.08C284.956 45.424 285.34 46.992 285.34 48.784ZM279.74 47.344C279.74 46.4053 279.42 45.6587 278.78 45.104C278.14 44.5493 277.34 44.272 276.38 44.272C275.462 44.272 274.684 44.5387 274.044 45.072C273.425 45.6053 273.041 46.3627 272.892 47.344H279.74ZM294.851 58.256C293.293 58.256 291.907 57.9893 290.691 57.456C289.475 56.9227 288.515 56.1973 287.811 55.28C287.107 54.3413 286.712 53.296 286.627 52.144H292.035C292.099 52.7627 292.387 53.264 292.899 53.648C293.411 54.032 294.04 54.224 294.787 54.224C295.469 54.224 295.992 54.096 296.355 53.84C296.739 53.5627 296.931 53.2107 296.931 52.784C296.931 52.272 296.664 51.8987 296.131 51.664C295.597 51.408 294.733 51.1307 293.539 50.832C292.259 50.5333 291.192 50.224 290.339 49.904C289.485 49.5627 288.749 49.04 288.131 48.336C287.512 47.6107 287.203 46.64 287.203 45.424C287.203 44.4 287.48 43.472 288.035 42.64C288.611 41.7867 289.443 41.1147 290.531 40.624C291.64 40.1333 292.952 39.888 294.467 39.888C296.707 39.888 298.467 40.4427 299.747 41.552C301.048 42.6613 301.795 44.1333 301.987 45.968H296.931C296.845 45.3493 296.568 44.8587 296.099 44.496C295.651 44.1333 295.053 43.952 294.307 43.952C293.667 43.952 293.176 44.08 292.835 44.336C292.493 44.5707 292.323 44.9013 292.323 45.328C292.323 45.84 292.589 46.224 293.123 46.48C293.677 46.736 294.531 46.992 295.683 47.248C297.005 47.5893 298.083 47.9307 298.915 48.272C299.747 48.592 300.472 49.1253 301.091 49.872C301.731 50.5973 302.061 51.5787 302.083 52.816C302.083 53.8613 301.784 54.8 301.187 55.632C300.611 56.4427 299.768 57.0827 298.659 57.552C297.571 58.0213 296.301 58.256 294.851 58.256ZM314.742 53.36V58H311.958C309.974 58 308.428 57.52 307.318 56.56C306.209 55.5787 305.654 53.9893 305.654 51.792V44.688H303.478V40.144H305.654V35.792H311.126V40.144H314.71V44.688H311.126V51.856C311.126 52.3893 311.254 52.7733 311.51 53.008C311.766 53.2427 312.193 53.36 312.79 53.36H314.742Z" fill="url(#paint13_linear_1389_6989)"/>
<path d="M54.481 83.463C54.481 82.579 54.6847 81.786 55.092 81.084C55.508 80.382 56.067 79.836 56.769 79.446C57.4797 79.0473 58.2553 78.848 59.096 78.848C60.058 78.848 60.9117 79.0863 61.657 79.563C62.411 80.031 62.957 80.6983 63.295 81.565H61.514C61.28 81.0883 60.955 80.733 60.539 80.499C60.123 80.265 59.642 80.148 59.096 80.148C58.498 80.148 57.965 80.2823 57.497 80.551C57.029 80.8197 56.6607 81.2053 56.392 81.708C56.132 82.2107 56.002 82.7957 56.002 83.463C56.002 84.1303 56.132 84.7153 56.392 85.218C56.6607 85.7207 57.029 86.1107 57.497 86.388C57.965 86.6567 58.498 86.791 59.096 86.791C59.642 86.791 60.123 86.674 60.539 86.44C60.955 86.206 61.28 85.8507 61.514 85.374H63.295C62.957 86.2407 62.411 86.908 61.657 87.376C60.9117 87.844 60.058 88.078 59.096 88.078C58.2467 88.078 57.471 87.883 56.769 87.493C56.067 87.0943 55.508 86.544 55.092 85.842C54.6847 85.14 54.481 84.347 54.481 83.463ZM66.5117 81.877C66.7284 81.513 67.0144 81.2313 67.3697 81.032C67.7337 80.824 68.1627 80.72 68.6567 80.72V82.254H68.2797C67.699 82.254 67.257 82.4013 66.9537 82.696C66.659 82.9907 66.5117 83.502 66.5117 84.23V88H65.0297V80.837H66.5117V81.877ZM69.5249 84.386C69.5249 83.6667 69.6723 83.0297 69.9669 82.475C70.2703 81.9203 70.6776 81.4913 71.1889 81.188C71.7089 80.876 72.2809 80.72 72.9049 80.72C73.4683 80.72 73.9579 80.8327 74.3739 81.058C74.7986 81.2747 75.1366 81.5477 75.3879 81.877V80.837H76.8829V88H75.3879V86.934C75.1366 87.272 74.7943 87.5537 74.3609 87.779C73.9276 88.0043 73.4336 88.117 72.8789 88.117C72.2636 88.117 71.7003 87.961 71.1889 87.649C70.6776 87.3283 70.2703 86.8863 69.9669 86.323C69.6723 85.751 69.5249 85.1053 69.5249 84.386ZM75.3879 84.412C75.3879 83.918 75.2839 83.489 75.0759 83.125C74.8766 82.761 74.6123 82.4837 74.2829 82.293C73.9536 82.1023 73.5983 82.007 73.2169 82.007C72.8356 82.007 72.4803 82.1023 72.1509 82.293C71.8216 82.475 71.5529 82.748 71.3449 83.112C71.1456 83.4673 71.0459 83.892 71.0459 84.386C71.0459 84.88 71.1456 85.3133 71.3449 85.686C71.5529 86.0587 71.8216 86.3447 72.1509 86.544C72.4889 86.7347 72.8443 86.83 73.2169 86.83C73.5983 86.83 73.9536 86.7347 74.2829 86.544C74.6123 86.3533 74.8766 86.076 75.0759 85.712C75.2839 85.3393 75.3879 84.906 75.3879 84.412ZM78.3355 84.412C78.3355 83.6753 78.4828 83.0297 78.7775 82.475C79.0808 81.9117 79.4968 81.4783 80.0255 81.175C80.5542 80.8717 81.1608 80.72 81.8455 80.72C82.7122 80.72 83.4272 80.928 83.9905 81.344C84.5625 81.7513 84.9482 82.3363 85.1475 83.099H83.5485C83.4185 82.7437 83.2105 82.4663 82.9245 82.267C82.6385 82.0677 82.2788 81.968 81.8455 81.968C81.2388 81.968 80.7535 82.1847 80.3895 82.618C80.0342 83.0427 79.8565 83.6407 79.8565 84.412C79.8565 85.1833 80.0342 85.7857 80.3895 86.219C80.7535 86.6523 81.2388 86.869 81.8455 86.869C82.7035 86.869 83.2712 86.492 83.5485 85.738H85.1475C84.9395 86.466 84.5495 87.0467 83.9775 87.48C83.4055 87.9047 82.6948 88.117 81.8455 88.117C81.1608 88.117 80.5542 87.9653 80.0255 87.662C79.4968 87.35 79.0808 86.9167 78.7775 86.362C78.4828 85.7987 78.3355 85.1487 78.3355 84.412ZM89.4584 84.425L92.7604 88H90.7584L88.1064 84.919V88H86.6244V78.38H88.1064V83.97L90.7064 80.837H92.7604L89.4584 84.425ZM104.623 88H103.141L98.6816 81.253V88H97.1996V78.952H98.6816L103.141 85.686V78.952H104.623V88ZM110.69 88.091C109.849 88.091 109.073 87.896 108.363 87.506C107.661 87.1073 107.102 86.557 106.686 85.855C106.278 85.1443 106.075 84.347 106.075 83.463C106.075 82.579 106.278 81.786 106.686 81.084C107.102 80.382 107.661 79.836 108.363 79.446C109.073 79.0473 109.849 78.848 110.69 78.848C111.539 78.848 112.315 79.0473 113.017 79.446C113.727 79.836 114.286 80.382 114.694 81.084C115.101 81.786 115.305 82.579 115.305 83.463C115.305 84.347 115.101 85.1443 114.694 85.855C114.286 86.557 113.727 87.1073 113.017 87.506C112.315 87.896 111.539 88.091 110.69 88.091ZM110.69 86.804C111.288 86.804 111.821 86.6697 112.289 86.401C112.757 86.1237 113.121 85.7337 113.381 85.231C113.649 84.7197 113.784 84.1303 113.784 83.463C113.784 82.7957 113.649 82.2107 113.381 81.708C113.121 81.2053 112.757 80.8197 112.289 80.551C111.821 80.2823 111.288 80.148 110.69 80.148C110.092 80.148 109.559 80.2823 109.091 80.551C108.623 80.8197 108.254 81.2053 107.986 81.708C107.726 82.2107 107.596 82.7957 107.596 83.463C107.596 84.1303 107.726 84.7197 107.986 85.231C108.254 85.7337 108.623 86.1237 109.091 86.401C109.559 86.6697 110.092 86.804 110.69 86.804ZM121.456 88L119.376 84.386H118.245V88H116.763V78.965H119.883C120.576 78.965 121.161 79.0863 121.638 79.329C122.123 79.5717 122.483 79.8967 122.717 80.304C122.96 80.7113 123.081 81.1663 123.081 81.669C123.081 82.2583 122.908 82.7957 122.561 83.281C122.223 83.7577 121.699 84.0827 120.988 84.256L123.224 88H121.456ZM118.245 83.203H119.883C120.438 83.203 120.854 83.0643 121.131 82.787C121.417 82.5097 121.56 82.137 121.56 81.669C121.56 81.201 121.421 80.837 121.144 80.577C120.867 80.3083 120.446 80.174 119.883 80.174H118.245V83.203ZM124.483 83.463C124.483 82.579 124.687 81.786 125.094 81.084C125.51 80.382 126.069 79.836 126.771 79.446C127.482 79.0473 128.257 78.848 129.098 78.848C130.06 78.848 130.914 79.0863 131.659 79.563C132.413 80.031 132.959 80.6983 133.297 81.565H131.516C131.282 81.0883 130.957 80.733 130.541 80.499C130.125 80.265 129.644 80.148 129.098 80.148C128.5 80.148 127.967 80.2823 127.499 80.551C127.031 80.8197 126.663 81.2053 126.394 81.708C126.134 82.2107 126.004 82.7957 126.004 83.463C126.004 84.1303 126.134 84.7153 126.394 85.218C126.663 85.7207 127.031 86.1107 127.499 86.388C127.967 86.6567 128.5 86.791 129.098 86.791C129.644 86.791 130.125 86.674 130.541 86.44C130.957 86.206 131.282 85.8507 131.516 85.374H133.297C132.959 86.2407 132.413 86.908 131.659 87.376C130.914 87.844 130.06 88.078 129.098 88.078C128.249 88.078 127.473 87.883 126.771 87.493C126.069 87.0943 125.51 86.544 125.094 85.842C124.687 85.14 124.483 84.347 124.483 83.463ZM136.514 80.161V82.813H139.634V84.022H136.514V86.791H140.024V88H135.032V78.952H140.024V80.161H136.514ZM147.686 78.965V80.174H145.281V88H143.799V80.174H141.381V78.965H147.686ZM153.188 85.985C154.02 85.2657 154.674 84.6763 155.151 84.217C155.636 83.749 156.039 83.2637 156.36 82.761C156.681 82.2583 156.841 81.7557 156.841 81.253C156.841 80.733 156.715 80.3257 156.464 80.031C156.221 79.7363 155.836 79.589 155.307 79.589C154.796 79.589 154.397 79.7537 154.111 80.083C153.834 80.4037 153.686 80.837 153.669 81.383H152.239C152.265 80.395 152.56 79.641 153.123 79.121C153.695 78.5923 154.419 78.328 155.294 78.328C156.239 78.328 156.975 78.588 157.504 79.108C158.041 79.628 158.31 80.3213 158.31 81.188C158.31 81.812 158.15 82.4143 157.829 82.995C157.517 83.567 157.14 84.0827 156.698 84.542C156.265 84.9927 155.71 85.517 155.034 86.115L154.449 86.635H158.57V87.87H152.252V86.791L153.188 85.985ZM159.872 83.138C159.872 81.6387 160.123 80.4687 160.626 79.628C161.137 78.7787 162.012 78.354 163.252 78.354C164.491 78.354 165.362 78.7787 165.865 79.628C166.376 80.4687 166.632 81.6387 166.632 83.138C166.632 84.6547 166.376 85.842 165.865 86.7C165.362 87.5493 164.491 87.974 163.252 87.974C162.012 87.974 161.137 87.5493 160.626 86.7C160.123 85.842 159.872 84.6547 159.872 83.138ZM165.176 83.138C165.176 82.436 165.128 81.8423 165.033 81.357C164.946 80.8717 164.764 80.4773 164.487 80.174C164.209 79.862 163.798 79.706 163.252 79.706C162.706 79.706 162.294 79.862 162.017 80.174C161.739 80.4773 161.553 80.8717 161.458 81.357C161.371 81.8423 161.328 82.436 161.328 83.138C161.328 83.866 161.371 84.477 161.458 84.971C161.544 85.465 161.726 85.8637 162.004 86.167C162.29 86.4703 162.706 86.622 163.252 86.622C163.798 86.622 164.209 86.4703 164.487 86.167C164.773 85.8637 164.959 85.465 165.046 84.971C165.132 84.477 165.176 83.866 165.176 83.138ZM169.019 85.985C169.851 85.2657 170.505 84.6763 170.982 84.217C171.467 83.749 171.87 83.2637 172.191 82.761C172.512 82.2583 172.672 81.7557 172.672 81.253C172.672 80.733 172.546 80.3257 172.295 80.031C172.052 79.7363 171.667 79.589 171.138 79.589C170.627 79.589 170.228 79.7537 169.942 80.083C169.665 80.4037 169.517 80.837 169.5 81.383H168.07C168.096 80.395 168.391 79.641 168.954 79.121C169.526 78.5923 170.25 78.328 171.125 78.328C172.07 78.328 172.806 78.588 173.335 79.108C173.872 79.628 174.141 80.3213 174.141 81.188C174.141 81.812 173.981 82.4143 173.66 82.995C173.348 83.567 172.971 84.0827 172.529 84.542C172.096 84.9927 171.541 85.517 170.865 86.115L170.28 86.635H174.401V87.87H168.083V86.791L169.019 85.985ZM180.799 80.72C180.704 80.3213 180.53 80.0223 180.279 79.823C180.028 79.6237 179.677 79.524 179.226 79.524C178.541 79.524 178.03 79.7883 177.692 80.317C177.354 80.837 177.176 81.7037 177.159 82.917C177.384 82.5357 177.714 82.241 178.147 82.033C178.58 81.825 179.048 81.721 179.551 81.721C180.123 81.721 180.626 81.8467 181.059 82.098C181.501 82.3407 181.843 82.696 182.086 83.164C182.337 83.632 182.463 84.191 182.463 84.841C182.463 85.4477 182.342 85.9893 182.099 86.466C181.865 86.9427 181.514 87.3197 181.046 87.597C180.578 87.8657 180.015 88 179.356 88C178.463 88 177.761 87.805 177.25 87.415C176.747 87.0163 176.392 86.4573 176.184 85.738C175.985 85.0187 175.885 84.1217 175.885 83.047C175.885 79.875 177.003 78.289 179.239 78.289C180.106 78.289 180.786 78.523 181.28 78.991C181.783 79.459 182.077 80.0353 182.164 80.72H180.799ZM179.226 82.969C178.697 82.969 178.247 83.1293 177.874 83.45C177.51 83.762 177.328 84.217 177.328 84.815C177.328 85.413 177.497 85.8897 177.835 86.245C178.182 86.5917 178.663 86.765 179.278 86.765C179.824 86.765 180.253 86.596 180.565 86.258C180.886 85.92 181.046 85.4693 181.046 84.906C181.046 84.3167 180.89 83.8487 180.578 83.502C180.275 83.1467 179.824 82.969 179.226 82.969ZM197.236 80.837L195.013 88H193.453L192.01 82.709L190.567 88H189.007L186.771 80.837H188.279L189.774 86.596L191.295 80.837H192.842L194.298 86.57L195.78 80.837H197.236ZM199.097 79.888C198.828 79.888 198.603 79.797 198.421 79.615C198.239 79.433 198.148 79.2077 198.148 78.939C198.148 78.6703 198.239 78.445 198.421 78.263C198.603 78.081 198.828 77.99 199.097 77.99C199.357 77.99 199.578 78.081 199.76 78.263C199.942 78.445 200.033 78.6703 200.033 78.939C200.033 79.2077 199.942 79.433 199.76 79.615C199.578 79.797 199.357 79.888 199.097 79.888ZM199.825 80.837V88H198.343V80.837H199.825ZM203.5 82.046V86.011C203.5 86.2797 203.561 86.4747 203.682 86.596C203.812 86.7087 204.029 86.765 204.332 86.765H205.242V88H204.072C203.405 88 202.893 87.844 202.538 87.532C202.183 87.22 202.005 86.713 202.005 86.011V82.046H201.16V80.837H202.005V79.056H203.5V80.837H205.242V82.046H203.5ZM210.313 80.72C210.859 80.72 211.344 80.837 211.769 81.071C212.202 81.305 212.54 81.6517 212.783 82.111C213.034 82.5703 213.16 83.125 213.16 83.775V88H211.691V83.996C211.691 83.3547 211.53 82.865 211.21 82.527C210.889 82.1803 210.451 82.007 209.897 82.007C209.342 82.007 208.9 82.1803 208.571 82.527C208.25 82.865 208.09 83.3547 208.09 83.996V88H206.608V78.38H208.09V81.669C208.341 81.3657 208.657 81.1317 209.039 80.967C209.429 80.8023 209.853 80.72 210.313 80.72ZM217.933 84.412C217.933 83.6753 218.08 83.0297 218.375 82.475C218.678 81.9117 219.094 81.4783 219.623 81.175C220.152 80.8717 220.758 80.72 221.443 80.72C222.31 80.72 223.025 80.928 223.588 81.344C224.16 81.7513 224.546 82.3363 224.745 83.099H223.146C223.016 82.7437 222.808 82.4663 222.522 82.267C222.236 82.0677 221.876 81.968 221.443 81.968C220.836 81.968 220.351 82.1847 219.987 82.618C219.632 83.0427 219.454 83.6407 219.454 84.412C219.454 85.1833 219.632 85.7857 219.987 86.219C220.351 86.6523 220.836 86.869 221.443 86.869C222.301 86.869 222.869 86.492 223.146 85.738H224.745C224.537 86.466 224.147 87.0467 223.575 87.48C223.003 87.9047 222.292 88.117 221.443 88.117C220.758 88.117 220.152 87.9653 219.623 87.662C219.094 87.35 218.678 86.9167 218.375 86.362C218.08 85.7987 217.933 85.1487 217.933 84.412ZM229.329 88.117C228.653 88.117 228.042 87.9653 227.496 87.662C226.95 87.35 226.521 86.9167 226.209 86.362C225.897 85.7987 225.741 85.1487 225.741 84.412C225.741 83.684 225.901 83.0383 226.222 82.475C226.543 81.9117 226.98 81.4783 227.535 81.175C228.09 80.8717 228.709 80.72 229.394 80.72C230.079 80.72 230.698 80.8717 231.253 81.175C231.808 81.4783 232.245 81.9117 232.566 82.475C232.887 83.0383 233.047 83.684 233.047 84.412C233.047 85.14 232.882 85.7857 232.553 86.349C232.224 86.9123 231.773 87.35 231.201 87.662C230.638 87.9653 230.014 88.117 229.329 88.117ZM229.329 86.83C229.71 86.83 230.066 86.739 230.395 86.557C230.733 86.375 231.006 86.102 231.214 85.738C231.422 85.374 231.526 84.932 231.526 84.412C231.526 83.892 231.426 83.4543 231.227 83.099C231.028 82.735 230.763 82.462 230.434 82.28C230.105 82.098 229.749 82.007 229.368 82.007C228.987 82.007 228.631 82.098 228.302 82.28C227.981 82.462 227.726 82.735 227.535 83.099C227.344 83.4543 227.249 83.892 227.249 84.412C227.249 85.1833 227.444 85.7813 227.834 86.206C228.233 86.622 228.731 86.83 229.329 86.83ZM238.126 80.72C238.689 80.72 239.192 80.837 239.634 81.071C240.085 81.305 240.436 81.6517 240.687 82.111C240.938 82.5703 241.064 83.125 241.064 83.775V88H239.595V83.996C239.595 83.3547 239.435 82.865 239.114 82.527C238.793 82.1803 238.356 82.007 237.801 82.007C237.246 82.007 236.804 82.1803 236.475 82.527C236.154 82.865 235.994 83.3547 235.994 83.996V88H234.512V80.837H235.994V81.656C236.237 81.3613 236.544 81.1317 236.917 80.967C237.298 80.8023 237.701 80.72 238.126 80.72ZM245.957 82.046H244.631V88H243.136V82.046H242.291V80.837H243.136V80.33C243.136 79.5067 243.353 78.9087 243.786 78.536C244.228 78.1547 244.917 77.964 245.853 77.964V79.199C245.403 79.199 245.086 79.2857 244.904 79.459C244.722 79.6237 244.631 79.914 244.631 80.33V80.837H245.957V82.046ZM248.025 79.888C247.756 79.888 247.531 79.797 247.349 79.615C247.167 79.433 247.076 79.2077 247.076 78.939C247.076 78.6703 247.167 78.445 247.349 78.263C247.531 78.081 247.756 77.99 248.025 77.99C248.285 77.99 248.506 78.081 248.688 78.263C248.87 78.445 248.961 78.6703 248.961 78.939C248.961 79.2077 248.87 79.433 248.688 79.615C248.506 79.797 248.285 79.888 248.025 79.888ZM248.753 80.837V88H247.271V80.837H248.753ZM250.205 84.386C250.205 83.6667 250.352 83.0297 250.647 82.475C250.95 81.9203 251.357 81.4913 251.869 81.188C252.389 80.876 252.965 80.72 253.598 80.72C254.066 80.72 254.525 80.824 254.976 81.032C255.435 81.2313 255.799 81.5 256.068 81.838V78.38H257.563V88H256.068V86.921C255.825 87.2677 255.487 87.5537 255.054 87.779C254.629 88.0043 254.139 88.117 253.585 88.117C252.961 88.117 252.389 87.961 251.869 87.649C251.357 87.3283 250.95 86.8863 250.647 86.323C250.352 85.751 250.205 85.1053 250.205 84.386ZM256.068 84.412C256.068 83.918 255.964 83.489 255.756 83.125C255.556 82.761 255.292 82.4837 254.963 82.293C254.633 82.1023 254.278 82.007 253.897 82.007C253.515 82.007 253.16 82.1023 252.831 82.293C252.501 82.475 252.233 82.748 252.025 83.112C251.825 83.4673 251.726 83.892 251.726 84.386C251.726 84.88 251.825 85.3133 252.025 85.686C252.233 86.0587 252.501 86.3447 252.831 86.544C253.169 86.7347 253.524 86.83 253.897 86.83C254.278 86.83 254.633 86.7347 254.963 86.544C255.292 86.3533 255.556 86.076 255.756 85.712C255.964 85.3393 256.068 84.906 256.068 84.412ZM266.074 84.243C266.074 84.5117 266.057 84.7543 266.022 84.971H260.549C260.593 85.543 260.805 86.0023 261.186 86.349C261.568 86.6957 262.036 86.869 262.59 86.869C263.388 86.869 263.951 86.5353 264.28 85.868H265.879C265.663 86.5267 265.268 87.0683 264.696 87.493C264.133 87.909 263.431 88.117 262.59 88.117C261.906 88.117 261.29 87.9653 260.744 87.662C260.207 87.35 259.782 86.9167 259.47 86.362C259.167 85.7987 259.015 85.1487 259.015 84.412C259.015 83.6753 259.163 83.0297 259.457 82.475C259.761 81.9117 260.181 81.4783 260.718 81.175C261.264 80.8717 261.888 80.72 262.59 80.72C263.266 80.72 263.869 80.8673 264.397 81.162C264.926 81.4567 265.338 81.8727 265.632 82.41C265.927 82.9387 266.074 83.5497 266.074 84.243ZM264.527 83.775C264.519 83.229 264.324 82.7913 263.942 82.462C263.561 82.1327 263.089 81.968 262.525 81.968C262.014 81.968 261.576 82.1327 261.212 82.462C260.848 82.7827 260.632 83.2203 260.562 83.775H264.527ZM271.147 80.72C271.71 80.72 272.213 80.837 272.655 81.071C273.105 81.305 273.456 81.6517 273.708 82.111C273.959 82.5703 274.085 83.125 274.085 83.775V88H272.616V83.996C272.616 83.3547 272.455 82.865 272.135 82.527C271.814 82.1803 271.376 82.007 270.822 82.007C270.267 82.007 269.825 82.1803 269.496 82.527C269.175 82.865 269.015 83.3547 269.015 83.996V88H267.533V80.837H269.015V81.656C269.257 81.3613 269.565 81.1317 269.938 80.967C270.319 80.8023 270.722 80.72 271.147 80.72ZM275.481 84.412C275.481 83.6753 275.628 83.0297 275.923 82.475C276.226 81.9117 276.642 81.4783 277.171 81.175C277.7 80.8717 278.306 80.72 278.991 80.72C279.858 80.72 280.573 80.928 281.136 81.344C281.708 81.7513 282.094 82.3363 282.293 83.099H280.694C280.564 82.7437 280.356 82.4663 280.07 82.267C279.784 82.0677 279.424 81.968 278.991 81.968C278.384 81.968 277.899 82.1847 277.535 82.618C277.18 83.0427 277.002 83.6407 277.002 84.412C277.002 85.1833 277.18 85.7857 277.535 86.219C277.899 86.6523 278.384 86.869 278.991 86.869C279.849 86.869 280.417 86.492 280.694 85.738H282.293C282.085 86.466 281.695 87.0467 281.123 87.48C280.551 87.9047 279.84 88.117 278.991 88.117C278.306 88.117 277.7 87.9653 277.171 87.662C276.642 87.35 276.226 86.9167 275.923 86.362C275.628 85.7987 275.481 85.1487 275.481 84.412ZM290.335 84.243C290.335 84.5117 290.318 84.7543 290.283 84.971H284.81C284.853 85.543 285.066 86.0023 285.447 86.349C285.828 86.6957 286.296 86.869 286.851 86.869C287.648 86.869 288.212 86.5353 288.541 85.868H290.14C289.923 86.5267 289.529 87.0683 288.957 87.493C288.394 87.909 287.692 88.117 286.851 88.117C286.166 88.117 285.551 87.9653 285.005 87.662C284.468 87.35 284.043 86.9167 283.731 86.362C283.428 85.7987 283.276 85.1487 283.276 84.412C283.276 83.6753 283.423 83.0297 283.718 82.475C284.021 81.9117 284.442 81.4783 284.979 81.175C285.525 80.8717 286.149 80.72 286.851 80.72C287.527 80.72 288.129 80.8673 288.658 81.162C289.187 81.4567 289.598 81.8727 289.893 82.41C290.188 82.9387 290.335 83.5497 290.335 84.243ZM288.788 83.775C288.779 83.229 288.584 82.7913 288.203 82.462C287.822 82.1327 287.349 81.968 286.786 81.968C286.275 81.968 285.837 82.1327 285.473 82.462C285.109 82.7827 284.892 83.2203 284.823 83.775H288.788Z" fill="black"/>
<rect x="116" y="109" width="112" height="36" rx="18" fill="black"/>
<path d="M140.717 124.395V126.67H143.772V128.113H140.717V130.518H144.162V132H138.897V122.913H144.162V124.395H140.717ZM149.807 124.694C150.665 124.694 151.358 124.967 151.887 125.513C152.416 126.05 152.68 126.804 152.68 127.775V132H150.86V128.022C150.86 127.45 150.717 127.012 150.431 126.709C150.145 126.397 149.755 126.241 149.261 126.241C148.758 126.241 148.36 126.397 148.065 126.709C147.779 127.012 147.636 127.45 147.636 128.022V132H145.816V124.798H147.636V125.695C147.879 125.383 148.186 125.14 148.559 124.967C148.94 124.785 149.356 124.694 149.807 124.694ZM156.231 125.916C156.465 125.535 156.768 125.236 157.141 125.019C157.522 124.802 157.955 124.694 158.441 124.694V126.605H157.96C157.388 126.605 156.954 126.739 156.66 127.008C156.374 127.277 156.231 127.745 156.231 128.412V132H154.411V124.798H156.231V125.916ZM162.865 132.117C162.171 132.117 161.547 131.965 160.993 131.662C160.438 131.35 160 130.912 159.68 130.349C159.368 129.786 159.212 129.136 159.212 128.399C159.212 127.662 159.372 127.012 159.693 126.449C160.022 125.886 160.468 125.452 161.032 125.149C161.595 124.837 162.223 124.681 162.917 124.681C163.61 124.681 164.238 124.837 164.802 125.149C165.365 125.452 165.807 125.886 166.128 126.449C166.457 127.012 166.622 127.662 166.622 128.399C166.622 129.136 166.453 129.786 166.115 130.349C165.785 130.912 165.335 131.35 164.763 131.662C164.199 131.965 163.567 132.117 162.865 132.117ZM162.865 130.531C163.194 130.531 163.502 130.453 163.788 130.297C164.082 130.132 164.316 129.89 164.49 129.569C164.663 129.248 164.75 128.858 164.75 128.399C164.75 127.714 164.568 127.19 164.204 126.826C163.848 126.453 163.411 126.267 162.891 126.267C162.371 126.267 161.933 126.453 161.578 126.826C161.231 127.19 161.058 127.714 161.058 128.399C161.058 129.084 161.227 129.612 161.565 129.985C161.911 130.349 162.345 130.531 162.865 130.531ZM169.777 122.38V132H167.957V122.38H169.777ZM173.395 122.38V132H171.575V122.38H173.395ZM186.052 132H184.232L180.111 125.773V132H178.291V122.913H180.111L184.232 129.153V122.913H186.052V132ZM191.048 132.117C190.355 132.117 189.731 131.965 189.176 131.662C188.621 131.35 188.184 130.912 187.863 130.349C187.551 129.786 187.395 129.136 187.395 128.399C187.395 127.662 187.555 127.012 187.876 126.449C188.205 125.886 188.652 125.452 189.215 125.149C189.778 124.837 190.407 124.681 191.1 124.681C191.793 124.681 192.422 124.837 192.985 125.149C193.548 125.452 193.99 125.886 194.311 126.449C194.64 127.012 194.805 127.662 194.805 128.399C194.805 129.136 194.636 129.786 194.298 130.349C193.969 130.912 193.518 131.35 192.946 131.662C192.383 131.965 191.75 132.117 191.048 132.117ZM191.048 130.531C191.377 130.531 191.685 130.453 191.971 130.297C192.266 130.132 192.5 129.89 192.673 129.569C192.846 129.248 192.933 128.858 192.933 128.399C192.933 127.714 192.751 127.19 192.387 126.826C192.032 126.453 191.594 126.267 191.074 126.267C190.554 126.267 190.116 126.453 189.761 126.826C189.414 127.19 189.241 127.714 189.241 128.399C189.241 129.084 189.41 129.612 189.748 129.985C190.095 130.349 190.528 130.531 191.048 130.531ZM206.124 124.798L204.018 132H202.055L200.742 126.969L199.429 132H197.453L195.334 124.798H197.18L198.454 130.284L199.832 124.798H201.756L203.108 130.271L204.382 124.798H206.124Z" fill="white"/>
<path d="M111.324 161.355V162.378H108.079V164.633H110.609V165.656H108.079V169H106.825V161.355H111.324ZM113.74 163.819C113.923 163.511 114.165 163.273 114.466 163.104C114.774 162.928 115.137 162.84 115.555 162.84V164.138H115.236C114.745 164.138 114.371 164.263 114.114 164.512C113.865 164.761 113.74 165.194 113.74 165.81V169H112.486V162.939H113.74V163.819ZM122.263 165.821C122.263 166.048 122.248 166.254 122.219 166.437H117.588C117.624 166.921 117.804 167.31 118.127 167.603C118.449 167.896 118.845 168.043 119.315 168.043C119.989 168.043 120.466 167.761 120.745 167.196H122.098C121.914 167.753 121.581 168.212 121.097 168.571C120.62 168.923 120.026 169.099 119.315 169.099C118.735 169.099 118.215 168.971 117.753 168.714C117.298 168.45 116.939 168.083 116.675 167.614C116.418 167.137 116.29 166.587 116.29 165.964C116.29 165.341 116.414 164.794 116.664 164.325C116.92 163.848 117.276 163.482 117.731 163.225C118.193 162.968 118.721 162.84 119.315 162.84C119.887 162.84 120.396 162.965 120.844 163.214C121.291 163.463 121.639 163.815 121.889 164.27C122.138 164.717 122.263 165.234 122.263 165.821ZM120.954 165.425C120.946 164.963 120.781 164.593 120.459 164.314C120.136 164.035 119.736 163.896 119.26 163.896C118.827 163.896 118.457 164.035 118.149 164.314C117.841 164.585 117.657 164.956 117.599 165.425H120.954ZM129.052 165.821C129.052 166.048 129.037 166.254 129.008 166.437H124.377C124.414 166.921 124.593 167.31 124.916 167.603C125.239 167.896 125.635 168.043 126.104 168.043C126.779 168.043 127.255 167.761 127.534 167.196H128.887C128.704 167.753 128.37 168.212 127.886 168.571C127.409 168.923 126.815 169.099 126.104 169.099C125.525 169.099 125.004 168.971 124.542 168.714C124.087 168.45 123.728 168.083 123.464 167.614C123.207 167.137 123.079 166.587 123.079 165.964C123.079 165.341 123.204 164.794 123.453 164.325C123.71 163.848 124.065 163.482 124.52 163.225C124.982 162.968 125.51 162.84 126.104 162.84C126.676 162.84 127.186 162.965 127.633 163.214C128.08 163.463 128.429 163.815 128.678 164.27C128.927 164.717 129.052 165.234 129.052 165.821ZM127.743 165.425C127.736 164.963 127.571 164.593 127.248 164.314C126.925 164.035 126.526 163.896 126.049 163.896C125.616 163.896 125.246 164.035 124.938 164.314C124.63 164.585 124.447 164.956 124.388 165.425H127.743ZM138.082 161.355V162.378H136.047V169H134.793V162.378H132.747V161.355H138.082ZM144.907 165.821C144.907 166.048 144.893 166.254 144.863 166.437H140.232C140.269 166.921 140.449 167.31 140.771 167.603C141.094 167.896 141.49 168.043 141.959 168.043C142.634 168.043 143.111 167.761 143.389 167.196H144.742C144.559 167.753 144.225 168.212 143.741 168.571C143.265 168.923 142.671 169.099 141.959 169.099C141.38 169.099 140.859 168.971 140.397 168.714C139.943 168.45 139.583 168.083 139.319 167.614C139.063 167.137 138.934 166.587 138.934 165.964C138.934 165.341 139.059 164.794 139.308 164.325C139.565 163.848 139.921 163.482 140.375 163.225C140.837 162.968 141.365 162.84 141.959 162.84C142.531 162.84 143.041 162.965 143.488 163.214C143.936 163.463 144.284 163.815 144.533 164.27C144.783 164.717 144.907 165.234 144.907 165.821ZM143.598 165.425C143.591 164.963 143.426 164.593 143.103 164.314C142.781 164.035 142.381 163.896 141.904 163.896C141.472 163.896 141.101 164.035 140.793 164.314C140.485 164.585 140.302 164.956 140.243 165.425H143.598ZM148.341 169.099C147.865 169.099 147.436 169.015 147.054 168.846C146.68 168.67 146.383 168.435 146.163 168.142C145.943 167.841 145.826 167.508 145.811 167.141H147.109C147.131 167.398 147.252 167.614 147.472 167.79C147.7 167.959 147.982 168.043 148.319 168.043C148.671 168.043 148.943 167.977 149.133 167.845C149.331 167.706 149.43 167.53 149.43 167.317C149.43 167.09 149.32 166.921 149.1 166.811C148.888 166.701 148.547 166.58 148.077 166.448C147.623 166.323 147.252 166.202 146.966 166.085C146.68 165.968 146.431 165.788 146.218 165.546C146.013 165.304 145.91 164.985 145.91 164.589C145.91 164.266 146.006 163.973 146.196 163.709C146.387 163.438 146.658 163.225 147.01 163.071C147.37 162.917 147.78 162.84 148.242 162.84C148.932 162.84 149.485 163.016 149.903 163.368C150.329 163.713 150.556 164.186 150.585 164.787H149.331C149.309 164.516 149.199 164.299 149.001 164.138C148.803 163.977 148.536 163.896 148.198 163.896C147.868 163.896 147.615 163.958 147.439 164.083C147.263 164.208 147.175 164.373 147.175 164.578C147.175 164.739 147.234 164.875 147.351 164.985C147.469 165.095 147.612 165.183 147.78 165.249C147.949 165.308 148.198 165.385 148.528 165.48C148.968 165.597 149.328 165.718 149.606 165.843C149.892 165.96 150.138 166.136 150.343 166.371C150.549 166.606 150.655 166.917 150.662 167.306C150.662 167.651 150.567 167.959 150.376 168.23C150.186 168.501 149.914 168.714 149.562 168.868C149.218 169.022 148.811 169.099 148.341 169.099ZM153.48 163.962V167.317C153.48 167.544 153.532 167.709 153.634 167.812C153.744 167.907 153.928 167.955 154.184 167.955H154.954V169H153.964C153.4 169 152.967 168.868 152.666 168.604C152.366 168.34 152.215 167.911 152.215 167.317V163.962H151.5V162.939H152.215V161.432H153.48V162.939H154.954V163.962H153.48Z" fill="black"/>
<path d="M111.324 161.355V162.378H108.079V164.633H110.609V165.656H108.079V169H106.825V161.355H111.324ZM113.74 163.819C113.923 163.511 114.165 163.273 114.466 163.104C114.774 162.928 115.137 162.84 115.555 162.84V164.138H115.236C114.745 164.138 114.371 164.263 114.114 164.512C113.865 164.761 113.74 165.194 113.74 165.81V169H112.486V162.939H113.74V163.819ZM122.263 165.821C122.263 166.048 122.248 166.254 122.219 166.437H117.588C117.624 166.921 117.804 167.31 118.127 167.603C118.449 167.896 118.845 168.043 119.315 168.043C119.989 168.043 120.466 167.761 120.745 167.196H122.098C121.914 167.753 121.581 168.212 121.097 168.571C120.62 168.923 120.026 169.099 119.315 169.099C118.735 169.099 118.215 168.971 117.753 168.714C117.298 168.45 116.939 168.083 116.675 167.614C116.418 167.137 116.29 166.587 116.29 165.964C116.29 165.341 116.414 164.794 116.664 164.325C116.92 163.848 117.276 163.482 117.731 163.225C118.193 162.968 118.721 162.84 119.315 162.84C119.887 162.84 120.396 162.965 120.844 163.214C121.291 163.463 121.639 163.815 121.889 164.27C122.138 164.717 122.263 165.234 122.263 165.821ZM120.954 165.425C120.946 164.963 120.781 164.593 120.459 164.314C120.136 164.035 119.736 163.896 119.26 163.896C118.827 163.896 118.457 164.035 118.149 164.314C117.841 164.585 117.657 164.956 117.599 165.425H120.954ZM129.052 165.821C129.052 166.048 129.037 166.254 129.008 166.437H124.377C124.414 166.921 124.593 167.31 124.916 167.603C125.239 167.896 125.635 168.043 126.104 168.043C126.779 168.043 127.255 167.761 127.534 167.196H128.887C128.704 167.753 128.37 168.212 127.886 168.571C127.409 168.923 126.815 169.099 126.104 169.099C125.525 169.099 125.004 168.971 124.542 168.714C124.087 168.45 123.728 168.083 123.464 167.614C123.207 167.137 123.079 166.587 123.079 165.964C123.079 165.341 123.204 164.794 123.453 164.325C123.71 163.848 124.065 163.482 124.52 163.225C124.982 162.968 125.51 162.84 126.104 162.84C126.676 162.84 127.186 162.965 127.633 163.214C128.08 163.463 128.429 163.815 128.678 164.27C128.927 164.717 129.052 165.234 129.052 165.821ZM127.743 165.425C127.736 164.963 127.571 164.593 127.248 164.314C126.925 164.035 126.526 163.896 126.049 163.896C125.616 163.896 125.246 164.035 124.938 164.314C124.63 164.585 124.447 164.956 124.388 165.425H127.743ZM138.082 161.355V162.378H136.047V169H134.793V162.378H132.747V161.355H138.082ZM144.907 165.821C144.907 166.048 144.893 166.254 144.863 166.437H140.232C140.269 166.921 140.449 167.31 140.771 167.603C141.094 167.896 141.49 168.043 141.959 168.043C142.634 168.043 143.111 167.761 143.389 167.196H144.742C144.559 167.753 144.225 168.212 143.741 168.571C143.265 168.923 142.671 169.099 141.959 169.099C141.38 169.099 140.859 168.971 140.397 168.714C139.943 168.45 139.583 168.083 139.319 167.614C139.063 167.137 138.934 166.587 138.934 165.964C138.934 165.341 139.059 164.794 139.308 164.325C139.565 163.848 139.921 163.482 140.375 163.225C140.837 162.968 141.365 162.84 141.959 162.84C142.531 162.84 143.041 162.965 143.488 163.214C143.936 163.463 144.284 163.815 144.533 164.27C144.783 164.717 144.907 165.234 144.907 165.821ZM143.598 165.425C143.591 164.963 143.426 164.593 143.103 164.314C142.781 164.035 142.381 163.896 141.904 163.896C141.472 163.896 141.101 164.035 140.793 164.314C140.485 164.585 140.302 164.956 140.243 165.425H143.598ZM148.341 169.099C147.865 169.099 147.436 169.015 147.054 168.846C146.68 168.67 146.383 168.435 146.163 168.142C145.943 167.841 145.826 167.508 145.811 167.141H147.109C147.131 167.398 147.252 167.614 147.472 167.79C147.7 167.959 147.982 168.043 148.319 168.043C148.671 168.043 148.943 167.977 149.133 167.845C149.331 167.706 149.43 167.53 149.43 167.317C149.43 167.09 149.32 166.921 149.1 166.811C148.888 166.701 148.547 166.58 148.077 166.448C147.623 166.323 147.252 166.202 146.966 166.085C146.68 165.968 146.431 165.788 146.218 165.546C146.013 165.304 145.91 164.985 145.91 164.589C145.91 164.266 146.006 163.973 146.196 163.709C146.387 163.438 146.658 163.225 147.01 163.071C147.37 162.917 147.78 162.84 148.242 162.84C148.932 162.84 149.485 163.016 149.903 163.368C150.329 163.713 150.556 164.186 150.585 164.787H149.331C149.309 164.516 149.199 164.299 149.001 164.138C148.803 163.977 148.536 163.896 148.198 163.896C147.868 163.896 147.615 163.958 147.439 164.083C147.263 164.208 147.175 164.373 147.175 164.578C147.175 164.739 147.234 164.875 147.351 164.985C147.469 165.095 147.612 165.183 147.78 165.249C147.949 165.308 148.198 165.385 148.528 165.48C148.968 165.597 149.328 165.718 149.606 165.843C149.892 165.96 150.138 166.136 150.343 166.371C150.549 166.606 150.655 166.917 150.662 167.306C150.662 167.651 150.567 167.959 150.376 168.23C150.186 168.501 149.914 168.714 149.562 168.868C149.218 169.022 148.811 169.099 148.341 169.099ZM153.48 163.962V167.317C153.48 167.544 153.532 167.709 153.634 167.812C153.744 167.907 153.928 167.955 154.184 167.955H154.954V169H153.964C153.4 169 152.967 168.868 152.666 168.604C152.366 168.34 152.215 167.911 152.215 167.317V163.962H151.5V162.939H152.215V161.432H153.48V162.939H154.954V163.962H153.48Z" fill="url(#paint14_linear_1389_6989)" fill-opacity="0.5"/>
<path d="M194.324 161.355V162.378H191.079V164.633H193.609V165.656H191.079V169H189.825V161.355H194.324ZM195.068 165.942C195.068 165.333 195.193 164.794 195.442 164.325C195.699 163.856 196.043 163.493 196.476 163.236C196.916 162.972 197.4 162.84 197.928 162.84C198.405 162.84 198.819 162.935 199.171 163.126C199.53 163.309 199.816 163.54 200.029 163.819V162.939H201.294V169H200.029V168.098C199.816 168.384 199.527 168.622 199.16 168.813C198.793 169.004 198.375 169.099 197.906 169.099C197.385 169.099 196.909 168.967 196.476 168.703C196.043 168.432 195.699 168.058 195.442 167.581C195.193 167.097 195.068 166.551 195.068 165.942ZM200.029 165.964C200.029 165.546 199.941 165.183 199.765 164.875C199.596 164.567 199.373 164.332 199.094 164.171C198.815 164.01 198.515 163.929 198.192 163.929C197.869 163.929 197.569 164.01 197.29 164.171C197.011 164.325 196.784 164.556 196.608 164.864C196.439 165.165 196.355 165.524 196.355 165.942C196.355 166.36 196.439 166.727 196.608 167.042C196.784 167.357 197.011 167.599 197.29 167.768C197.576 167.929 197.877 168.01 198.192 168.01C198.515 168.01 198.815 167.929 199.094 167.768C199.373 167.607 199.596 167.372 199.765 167.064C199.941 166.749 200.029 166.382 200.029 165.964ZM205.141 169.099C204.665 169.099 204.236 169.015 203.854 168.846C203.48 168.67 203.183 168.435 202.963 168.142C202.743 167.841 202.626 167.508 202.611 167.141H203.909C203.931 167.398 204.052 167.614 204.272 167.79C204.5 167.959 204.782 168.043 205.119 168.043C205.471 168.043 205.743 167.977 205.933 167.845C206.131 167.706 206.23 167.53 206.23 167.317C206.23 167.09 206.12 166.921 205.9 166.811C205.688 166.701 205.347 166.58 204.877 166.448C204.423 166.323 204.052 166.202 203.766 166.085C203.48 165.968 203.231 165.788 203.018 165.546C202.813 165.304 202.71 164.985 202.71 164.589C202.71 164.266 202.806 163.973 202.996 163.709C203.187 163.438 203.458 163.225 203.81 163.071C204.17 162.917 204.58 162.84 205.042 162.84C205.732 162.84 206.285 163.016 206.703 163.368C207.129 163.713 207.356 164.186 207.385 164.787H206.131C206.109 164.516 205.999 164.299 205.801 164.138C205.603 163.977 205.336 163.896 204.998 163.896C204.668 163.896 204.415 163.958 204.239 164.083C204.063 164.208 203.975 164.373 203.975 164.578C203.975 164.739 204.034 164.875 204.151 164.985C204.269 165.095 204.412 165.183 204.58 165.249C204.749 165.308 204.998 165.385 205.328 165.48C205.768 165.597 206.128 165.718 206.406 165.843C206.692 165.96 206.938 166.136 207.143 166.371C207.349 166.606 207.455 166.917 207.462 167.306C207.462 167.651 207.367 167.959 207.176 168.23C206.986 168.501 206.714 168.714 206.362 168.868C206.018 169.022 205.611 169.099 205.141 169.099ZM210.28 163.962V167.317C210.28 167.544 210.332 167.709 210.434 167.812C210.544 167.907 210.728 167.955 210.984 167.955H211.754V169H210.764C210.2 169 209.767 168.868 209.466 168.604C209.166 168.34 209.015 167.911 209.015 167.317V163.962H208.3V162.939H209.015V161.432H210.28V162.939H211.754V163.962H210.28ZM219.738 169L217.978 165.942H217.021V169H215.767V161.355H218.407C218.994 161.355 219.489 161.458 219.892 161.663C220.303 161.868 220.607 162.143 220.805 162.488C221.011 162.833 221.113 163.218 221.113 163.643C221.113 164.142 220.967 164.596 220.673 165.007C220.387 165.41 219.944 165.685 219.342 165.832L221.234 169H219.738ZM217.021 164.941H218.407C218.877 164.941 219.229 164.824 219.463 164.589C219.705 164.354 219.826 164.039 219.826 163.643C219.826 163.247 219.709 162.939 219.474 162.719C219.24 162.492 218.884 162.378 218.407 162.378H217.021V164.941ZM228.273 165.821C228.273 166.048 228.258 166.254 228.229 166.437H223.598C223.634 166.921 223.814 167.31 224.137 167.603C224.459 167.896 224.855 168.043 225.325 168.043C225.999 168.043 226.476 167.761 226.755 167.196H228.108C227.924 167.753 227.591 168.212 227.107 168.571C226.63 168.923 226.036 169.099 225.325 169.099C224.745 169.099 224.225 168.971 223.763 168.714C223.308 168.45 222.949 168.083 222.685 167.614C222.428 167.137 222.3 166.587 222.3 165.964C222.3 165.341 222.424 164.794 222.674 164.325C222.93 163.848 223.286 163.482 223.741 163.225C224.203 162.968 224.731 162.84 225.325 162.84C225.897 162.84 226.406 162.965 226.854 163.214C227.301 163.463 227.649 163.815 227.899 164.27C228.148 164.717 228.273 165.234 228.273 165.821ZM226.964 165.425C226.956 164.963 226.791 164.593 226.469 164.314C226.146 164.035 225.746 163.896 225.27 163.896C224.837 163.896 224.467 164.035 224.159 164.314C223.851 164.585 223.667 164.956 223.609 165.425H226.964ZM231.707 169.099C231.23 169.099 230.801 169.015 230.42 168.846C230.046 168.67 229.749 168.435 229.529 168.142C229.309 167.841 229.191 167.508 229.177 167.141H230.475C230.497 167.398 230.618 167.614 230.838 167.79C231.065 167.959 231.347 168.043 231.685 168.043C232.037 168.043 232.308 167.977 232.499 167.845C232.697 167.706 232.796 167.53 232.796 167.317C232.796 167.09 232.686 166.921 232.466 166.811C232.253 166.701 231.912 166.58 231.443 166.448C230.988 166.323 230.618 166.202 230.332 166.085C230.046 165.968 229.796 165.788 229.584 165.546C229.378 165.304 229.276 164.985 229.276 164.589C229.276 164.266 229.371 163.973 229.562 163.709C229.752 163.438 230.024 163.225 230.376 163.071C230.735 162.917 231.146 162.84 231.608 162.84C232.297 162.84 232.851 163.016 233.269 163.368C233.694 163.713 233.921 164.186 233.951 164.787H232.697C232.675 164.516 232.565 164.299 232.367 164.138C232.169 163.977 231.901 163.896 231.564 163.896C231.234 163.896 230.981 163.958 230.805 164.083C230.629 164.208 230.541 164.373 230.541 164.578C230.541 164.739 230.599 164.875 230.717 164.985C230.834 165.095 230.977 165.183 231.146 165.249C231.314 165.308 231.564 165.385 231.894 165.48C232.334 165.597 232.693 165.718 232.972 165.843C233.258 165.96 233.503 166.136 233.709 166.371C233.914 166.606 234.02 166.917 234.028 167.306C234.028 167.651 233.932 167.959 233.742 168.23C233.551 168.501 233.28 168.714 232.928 168.868C232.583 169.022 232.176 169.099 231.707 169.099ZM240.872 162.939V169H239.618V168.285C239.42 168.534 239.159 168.732 238.837 168.879C238.521 169.018 238.184 169.088 237.825 169.088C237.348 169.088 236.919 168.989 236.538 168.791C236.164 168.593 235.867 168.3 235.647 167.911C235.434 167.522 235.328 167.053 235.328 166.503V162.939H236.571V166.316C236.571 166.859 236.706 167.277 236.978 167.57C237.249 167.856 237.619 167.999 238.089 167.999C238.558 167.999 238.928 167.856 239.2 167.57C239.478 167.277 239.618 166.859 239.618 166.316V162.939H240.872ZM243.78 160.86V169H242.526V160.86H243.78ZM246.89 163.962V167.317C246.89 167.544 246.941 167.709 247.044 167.812C247.154 167.907 247.337 167.955 247.594 167.955H248.364V169H247.374C246.809 169 246.376 168.868 246.076 168.604C245.775 168.34 245.625 167.911 245.625 167.317V163.962H244.91V162.939H245.625V161.432H246.89V162.939H248.364V163.962H246.89ZM251.719 169.099C251.243 169.099 250.814 169.015 250.432 168.846C250.058 168.67 249.761 168.435 249.541 168.142C249.321 167.841 249.204 167.508 249.189 167.141H250.487C250.509 167.398 250.63 167.614 250.85 167.79C251.078 167.959 251.36 168.043 251.697 168.043C252.049 168.043 252.321 167.977 252.511 167.845C252.709 167.706 252.808 167.53 252.808 167.317C252.808 167.09 252.698 166.921 252.478 166.811C252.266 166.701 251.925 166.58 251.455 166.448C251.001 166.323 250.63 166.202 250.344 166.085C250.058 165.968 249.809 165.788 249.596 165.546C249.391 165.304 249.288 164.985 249.288 164.589C249.288 164.266 249.384 163.973 249.574 163.709C249.765 163.438 250.036 163.225 250.388 163.071C250.748 162.917 251.158 162.84 251.62 162.84C252.31 162.84 252.863 163.016 253.281 163.368C253.707 163.713 253.934 164.186 253.963 164.787H252.709C252.687 164.516 252.577 164.299 252.379 164.138C252.181 163.977 251.914 163.896 251.576 163.896C251.246 163.896 250.993 163.958 250.817 164.083C250.641 164.208 250.553 164.373 250.553 164.578C250.553 164.739 250.612 164.875 250.729 164.985C250.847 165.095 250.99 165.183 251.158 165.249C251.327 165.308 251.576 165.385 251.906 165.48C252.346 165.597 252.706 165.718 252.984 165.843C253.27 165.96 253.516 166.136 253.721 166.371C253.927 166.606 254.033 166.917 254.04 167.306C254.04 167.651 253.945 167.959 253.754 168.23C253.564 168.501 253.292 168.714 252.94 168.868C252.596 169.022 252.189 169.099 251.719 169.099Z" fill="black"/>
<path d="M194.324 161.355V162.378H191.079V164.633H193.609V165.656H191.079V169H189.825V161.355H194.324ZM195.068 165.942C195.068 165.333 195.193 164.794 195.442 164.325C195.699 163.856 196.043 163.493 196.476 163.236C196.916 162.972 197.4 162.84 197.928 162.84C198.405 162.84 198.819 162.935 199.171 163.126C199.53 163.309 199.816 163.54 200.029 163.819V162.939H201.294V169H200.029V168.098C199.816 168.384 199.527 168.622 199.16 168.813C198.793 169.004 198.375 169.099 197.906 169.099C197.385 169.099 196.909 168.967 196.476 168.703C196.043 168.432 195.699 168.058 195.442 167.581C195.193 167.097 195.068 166.551 195.068 165.942ZM200.029 165.964C200.029 165.546 199.941 165.183 199.765 164.875C199.596 164.567 199.373 164.332 199.094 164.171C198.815 164.01 198.515 163.929 198.192 163.929C197.869 163.929 197.569 164.01 197.29 164.171C197.011 164.325 196.784 164.556 196.608 164.864C196.439 165.165 196.355 165.524 196.355 165.942C196.355 166.36 196.439 166.727 196.608 167.042C196.784 167.357 197.011 167.599 197.29 167.768C197.576 167.929 197.877 168.01 198.192 168.01C198.515 168.01 198.815 167.929 199.094 167.768C199.373 167.607 199.596 167.372 199.765 167.064C199.941 166.749 200.029 166.382 200.029 165.964ZM205.141 169.099C204.665 169.099 204.236 169.015 203.854 168.846C203.48 168.67 203.183 168.435 202.963 168.142C202.743 167.841 202.626 167.508 202.611 167.141H203.909C203.931 167.398 204.052 167.614 204.272 167.79C204.5 167.959 204.782 168.043 205.119 168.043C205.471 168.043 205.743 167.977 205.933 167.845C206.131 167.706 206.23 167.53 206.23 167.317C206.23 167.09 206.12 166.921 205.9 166.811C205.688 166.701 205.347 166.58 204.877 166.448C204.423 166.323 204.052 166.202 203.766 166.085C203.48 165.968 203.231 165.788 203.018 165.546C202.813 165.304 202.71 164.985 202.71 164.589C202.71 164.266 202.806 163.973 202.996 163.709C203.187 163.438 203.458 163.225 203.81 163.071C204.17 162.917 204.58 162.84 205.042 162.84C205.732 162.84 206.285 163.016 206.703 163.368C207.129 163.713 207.356 164.186 207.385 164.787H206.131C206.109 164.516 205.999 164.299 205.801 164.138C205.603 163.977 205.336 163.896 204.998 163.896C204.668 163.896 204.415 163.958 204.239 164.083C204.063 164.208 203.975 164.373 203.975 164.578C203.975 164.739 204.034 164.875 204.151 164.985C204.269 165.095 204.412 165.183 204.58 165.249C204.749 165.308 204.998 165.385 205.328 165.48C205.768 165.597 206.128 165.718 206.406 165.843C206.692 165.96 206.938 166.136 207.143 166.371C207.349 166.606 207.455 166.917 207.462 167.306C207.462 167.651 207.367 167.959 207.176 168.23C206.986 168.501 206.714 168.714 206.362 168.868C206.018 169.022 205.611 169.099 205.141 169.099ZM210.28 163.962V167.317C210.28 167.544 210.332 167.709 210.434 167.812C210.544 167.907 210.728 167.955 210.984 167.955H211.754V169H210.764C210.2 169 209.767 168.868 209.466 168.604C209.166 168.34 209.015 167.911 209.015 167.317V163.962H208.3V162.939H209.015V161.432H210.28V162.939H211.754V163.962H210.28ZM219.738 169L217.978 165.942H217.021V169H215.767V161.355H218.407C218.994 161.355 219.489 161.458 219.892 161.663C220.303 161.868 220.607 162.143 220.805 162.488C221.011 162.833 221.113 163.218 221.113 163.643C221.113 164.142 220.967 164.596 220.673 165.007C220.387 165.41 219.944 165.685 219.342 165.832L221.234 169H219.738ZM217.021 164.941H218.407C218.877 164.941 219.229 164.824 219.463 164.589C219.705 164.354 219.826 164.039 219.826 163.643C219.826 163.247 219.709 162.939 219.474 162.719C219.24 162.492 218.884 162.378 218.407 162.378H217.021V164.941ZM228.273 165.821C228.273 166.048 228.258 166.254 228.229 166.437H223.598C223.634 166.921 223.814 167.31 224.137 167.603C224.459 167.896 224.855 168.043 225.325 168.043C225.999 168.043 226.476 167.761 226.755 167.196H228.108C227.924 167.753 227.591 168.212 227.107 168.571C226.63 168.923 226.036 169.099 225.325 169.099C224.745 169.099 224.225 168.971 223.763 168.714C223.308 168.45 222.949 168.083 222.685 167.614C222.428 167.137 222.3 166.587 222.3 165.964C222.3 165.341 222.424 164.794 222.674 164.325C222.93 163.848 223.286 163.482 223.741 163.225C224.203 162.968 224.731 162.84 225.325 162.84C225.897 162.84 226.406 162.965 226.854 163.214C227.301 163.463 227.649 163.815 227.899 164.27C228.148 164.717 228.273 165.234 228.273 165.821ZM226.964 165.425C226.956 164.963 226.791 164.593 226.469 164.314C226.146 164.035 225.746 163.896 225.27 163.896C224.837 163.896 224.467 164.035 224.159 164.314C223.851 164.585 223.667 164.956 223.609 165.425H226.964ZM231.707 169.099C231.23 169.099 230.801 169.015 230.42 168.846C230.046 168.67 229.749 168.435 229.529 168.142C229.309 167.841 229.191 167.508 229.177 167.141H230.475C230.497 167.398 230.618 167.614 230.838 167.79C231.065 167.959 231.347 168.043 231.685 168.043C232.037 168.043 232.308 167.977 232.499 167.845C232.697 167.706 232.796 167.53 232.796 167.317C232.796 167.09 232.686 166.921 232.466 166.811C232.253 166.701 231.912 166.58 231.443 166.448C230.988 166.323 230.618 166.202 230.332 166.085C230.046 165.968 229.796 165.788 229.584 165.546C229.378 165.304 229.276 164.985 229.276 164.589C229.276 164.266 229.371 163.973 229.562 163.709C229.752 163.438 230.024 163.225 230.376 163.071C230.735 162.917 231.146 162.84 231.608 162.84C232.297 162.84 232.851 163.016 233.269 163.368C233.694 163.713 233.921 164.186 233.951 164.787H232.697C232.675 164.516 232.565 164.299 232.367 164.138C232.169 163.977 231.901 163.896 231.564 163.896C231.234 163.896 230.981 163.958 230.805 164.083C230.629 164.208 230.541 164.373 230.541 164.578C230.541 164.739 230.599 164.875 230.717 164.985C230.834 165.095 230.977 165.183 231.146 165.249C231.314 165.308 231.564 165.385 231.894 165.48C232.334 165.597 232.693 165.718 232.972 165.843C233.258 165.96 233.503 166.136 233.709 166.371C233.914 166.606 234.02 166.917 234.028 167.306C234.028 167.651 233.932 167.959 233.742 168.23C233.551 168.501 233.28 168.714 232.928 168.868C232.583 169.022 232.176 169.099 231.707 169.099ZM240.872 162.939V169H239.618V168.285C239.42 168.534 239.159 168.732 238.837 168.879C238.521 169.018 238.184 169.088 237.825 169.088C237.348 169.088 236.919 168.989 236.538 168.791C236.164 168.593 235.867 168.3 235.647 167.911C235.434 167.522 235.328 167.053 235.328 166.503V162.939H236.571V166.316C236.571 166.859 236.706 167.277 236.978 167.57C237.249 167.856 237.619 167.999 238.089 167.999C238.558 167.999 238.928 167.856 239.2 167.57C239.478 167.277 239.618 166.859 239.618 166.316V162.939H240.872ZM243.78 160.86V169H242.526V160.86H243.78ZM246.89 163.962V167.317C246.89 167.544 246.941 167.709 247.044 167.812C247.154 167.907 247.337 167.955 247.594 167.955H248.364V169H247.374C246.809 169 246.376 168.868 246.076 168.604C245.775 168.34 245.625 167.911 245.625 167.317V163.962H244.91V162.939H245.625V161.432H246.89V162.939H248.364V163.962H246.89ZM251.719 169.099C251.243 169.099 250.814 169.015 250.432 168.846C250.058 168.67 249.761 168.435 249.541 168.142C249.321 167.841 249.204 167.508 249.189 167.141H250.487C250.509 167.398 250.63 167.614 250.85 167.79C251.078 167.959 251.36 168.043 251.697 168.043C252.049 168.043 252.321 167.977 252.511 167.845C252.709 167.706 252.808 167.53 252.808 167.317C252.808 167.09 252.698 166.921 252.478 166.811C252.266 166.701 251.925 166.58 251.455 166.448C251.001 166.323 250.63 166.202 250.344 166.085C250.058 165.968 249.809 165.788 249.596 165.546C249.391 165.304 249.288 164.985 249.288 164.589C249.288 164.266 249.384 163.973 249.574 163.709C249.765 163.438 250.036 163.225 250.388 163.071C250.748 162.917 251.158 162.84 251.62 162.84C252.31 162.84 252.863 163.016 253.281 163.368C253.707 163.713 253.934 164.186 253.963 164.787H252.709C252.687 164.516 252.577 164.299 252.379 164.138C252.181 163.977 251.914 163.896 251.576 163.896C251.246 163.896 250.993 163.958 250.817 164.083C250.641 164.208 250.553 164.373 250.553 164.578C250.553 164.739 250.612 164.875 250.729 164.985C250.847 165.095 250.99 165.183 251.158 165.249C251.327 165.308 251.576 165.385 251.906 165.48C252.346 165.597 252.706 165.718 252.984 165.843C253.27 165.96 253.516 166.136 253.721 166.371C253.927 166.606 254.033 166.917 254.04 167.306C254.04 167.651 253.945 167.959 253.754 168.23C253.564 168.501 253.292 168.714 252.94 168.868C252.596 169.022 252.189 169.099 251.719 169.099Z" fill="url(#paint15_linear_1389_6989)" fill-opacity="0.5"/>
<path d="M95.1846 167.685L99.2971 163.572L98.4805 162.755L95.1846 166.051L93.5221 164.389L92.7055 165.205L95.1846 167.685ZM96.0013 170.835C95.1944 170.835 94.436 170.682 93.7263 170.375C93.0166 170.069 92.3992 169.653 91.8742 169.128C91.3492 168.603 90.9336 167.986 90.6273 167.276C90.3211 166.567 90.168 165.808 90.168 165.001C90.168 164.194 90.3211 163.436 90.6273 162.726C90.9336 162.017 91.3492 161.399 91.8742 160.874C92.3992 160.349 93.0166 159.934 93.7263 159.627C94.436 159.321 95.1944 159.168 96.0013 159.168C96.8082 159.168 97.5666 159.321 98.2763 159.627C98.986 159.934 99.6034 160.349 100.128 160.874C100.653 161.399 101.069 162.017 101.375 162.726C101.682 163.436 101.835 164.194 101.835 165.001C101.835 165.808 101.682 166.567 101.375 167.276C101.069 167.986 100.653 168.603 100.128 169.128C99.6034 169.653 98.986 170.069 98.2763 170.375C97.5666 170.682 96.8082 170.835 96.0013 170.835Z" fill="black"/>
<path d="M178.185 167.685L182.297 163.572L181.48 162.755L178.185 166.051L176.522 164.389L175.705 165.205L178.185 167.685ZM179.001 170.835C178.194 170.835 177.436 170.682 176.726 170.375C176.017 170.069 175.399 169.653 174.874 169.128C174.349 168.603 173.934 167.986 173.627 167.276C173.321 166.567 173.168 165.808 173.168 165.001C173.168 164.194 173.321 163.436 173.627 162.726C173.934 162.017 174.349 161.399 174.874 160.874C175.399 160.349 176.017 159.934 176.726 159.627C177.436 159.321 178.194 159.168 179.001 159.168C179.808 159.168 180.567 159.321 181.276 159.627C181.986 159.934 182.603 160.349 183.128 160.874C183.653 161.399 184.069 162.017 184.375 162.726C184.682 163.436 184.835 164.194 184.835 165.001C184.835 165.808 184.682 166.567 184.375 167.276C184.069 167.986 183.653 168.603 183.128 169.128C182.603 169.653 181.986 170.069 181.276 170.375C180.567 170.682 179.808 170.835 179.001 170.835Z" fill="black"/>
</g>
<defs>
<filter id="filter0_d_1389_6989" x="91.0195" y="175" width="167" height="143" filterUnits="userSpaceOnUse" color-interpolation-filters="sRGB">
<feFlood flood-opacity="0" result="BackgroundImageFix"/>
<feColorMatrix in="SourceAlpha" type="matrix" values="0 0 0 0 0 0 0 0 0 0 0 0 0 0 0 0 0 0 127 0" result="hardAlpha"/>
<feOffset dy="4"/>
<feGaussianBlur stdDeviation="7"/>
<feComposite in2="hardAlpha" operator="out"/>
<feColorMatrix type="matrix" values="0 0 0 0 0.393217 0 0 0 0 0.393217 0 0 0 0 0.393217 0 0 0 0.25 0"/>
<feBlend mode="normal" in2="BackgroundImageFix" result="effect1_dropShadow_1389_6989"/>
<feBlend mode="normal" in="SourceGraphic" in2="effect1_dropShadow_1389_6989" result="shape"/>
</filter>
<linearGradient id="paint0_linear_1389_6989" x1="179" y1="-407.837" x2="226.083" y2="279.391" gradientUnits="userSpaceOnUse">
<stop stop-color="white" stop-opacity="0"/>
<stop offset="1" stop-color="#FFDDBF"/>
</linearGradient>
<linearGradient id="paint1_linear_1389_6989" x1="8.94734" y1="-115.75" x2="8.94734" y2="351.751" gradientUnits="userSpaceOnUse">
<stop stop-color="white" stop-opacity="0"/>
<stop offset="1" stop-color="#FF0000"/>
</linearGradient>
<linearGradient id="paint2_linear_1389_6989" x1="90.2441" y1="-114.5" x2="90.2441" y2="353.001" gradientUnits="userSpaceOnUse">
<stop stop-color="white" stop-opacity="0"/>
<stop offset="1" stop-color="#FF0000"/>
</linearGradient>
<linearGradient id="paint3_linear_1389_6989" x1="145.537" y1="-114.5" x2="145.537" y2="353.001" gradientUnits="userSpaceOnUse">
<stop stop-color="white" stop-opacity="0"/>
<stop offset="1" stop-color="#FF0000"/>
</linearGradient>
<linearGradient id="paint4_linear_1389_6989" x1="-73.007" y1="-114.5" x2="-73.007" y2="353.001" gradientUnits="userSpaceOnUse">
<stop stop-color="white" stop-opacity="0"/>
<stop offset="1" stop-color="#FF0000"/>
</linearGradient>
<linearGradient id="paint5_linear_1389_6989" x1="-186.227" y1="-114.5" x2="-186.227" y2="353.001" gradientUnits="userSpaceOnUse">
<stop stop-color="white" stop-opacity="0"/>
<stop offset="1" stop-color="#FF0000"/>
</linearGradient>
<linearGradient id="paint6_linear_1389_6989" x1="351.9" y1="-115.75" x2="351.9" y2="351.751" gradientUnits="userSpaceOnUse">
<stop stop-color="white" stop-opacity="0"/>
<stop offset="1" stop-color="#FF0000"/>
</linearGradient>
<linearGradient id="paint7_linear_1389_6989" x1="270.604" y1="-114.5" x2="270.604" y2="353.001" gradientUnits="userSpaceOnUse">
<stop stop-color="white" stop-opacity="0"/>
<stop offset="1" stop-color="#FF0000"/>
</linearGradient>
<linearGradient id="paint8_linear_1389_6989" x1="215.31" y1="-114.5" x2="215.31" y2="353.001" gradientUnits="userSpaceOnUse">
<stop stop-color="white" stop-opacity="0"/>
<stop offset="1" stop-color="#FF0000"/>
</linearGradient>
<linearGradient id="paint9_linear_1389_6989" x1="433.855" y1="-114.5" x2="433.855" y2="353.001" gradientUnits="userSpaceOnUse">
<stop stop-color="white" stop-opacity="0"/>
<stop offset="1" stop-color="#FF0000"/>
</linearGradient>
<linearGradient id="paint10_linear_1389_6989" x1="547.074" y1="-114.5" x2="547.074" y2="353.001" gradientUnits="userSpaceOnUse">
<stop stop-color="white" stop-opacity="0"/>
<stop offset="1" stop-color="#FF0000"/>
</linearGradient>
<linearGradient id="paint11_linear_1389_6989" x1="194.84" y1="189.309" x2="194.84" y2="335.809" gradientUnits="userSpaceOnUse">
<stop stop-color="white" stop-opacity="0"/>
<stop offset="1" stop-color="white"/>
</linearGradient>
<linearGradient id="paint12_linear_1389_6989" x1="175.02" y1="251" x2="172.84" y2="356.879" gradientUnits="userSpaceOnUse">
<stop stop-color="#1994FF" stop-opacity="0"/>
<stop offset="1" stop-color="#528CFF"/>
</linearGradient>
<linearGradient id="paint13_linear_1389_6989" x1="320" y1="53.5" x2="26.643" y2="46.0417" gradientUnits="userSpaceOnUse">
<stop stop-color="#FF8000" stop-opacity="0"/>
<stop offset="1" stop-color="#FF8000"/>
</linearGradient>
<linearGradient id="paint14_linear_1389_6989" x1="131" y1="159" x2="131" y2="171" gradientUnits="userSpaceOnUse">
<stop stop-opacity="0"/>
<stop offset="1"/>
</linearGradient>
<linearGradient id="paint15_linear_1389_6989" x1="222" y1="159" x2="222" y2="171" gradientUnits="userSpaceOnUse">
<stop stop-opacity="0"/>
<stop offset="1"/>
</linearGradient>
<clipPath id="clip0_1389_6989">
<rect width="343" height="248" rx="20" fill="white"/>
</clipPath>
</defs>
</svg>
