<svg width="40" height="40" viewBox="0 0 40 40" fill="none" xmlns="http://www.w3.org/2000/svg">
<rect width="40" height="40" rx="11" fill="#F2EEFF"/>
<path d="M29.25 20C29.25 14.8914 25.1086 10.75 20 10.75C14.8914 10.75 10.75 14.8914 10.75 20C10.75 25.1086 14.8914 29.25 20 29.25C25.1086 29.25 29.25 25.1086 29.25 20ZM30.75 20C30.75 25.9371 25.9371 30.75 20 30.75C14.0629 30.75 9.25 25.937 9.25 20C9.25 14.0629 14.0629 9.25 20 9.25C25.937 9.25 30.75 14.0629 30.75 20Z" fill="#5D2CFF"/>
<path d="M22.75 20C22.75 19.8467 22.7108 19.7167 22.5279 19.5036C22.3127 19.253 21.9721 18.9717 21.4135 18.516L21.4135 18.5159C21.125 18.2806 20.8458 18.0647 20.5952 17.8887H20.5951C20.4029 17.7538 20.1844 17.612 19.9524 17.4689L19.8522 17.4076C19.2865 17.0635 18.9611 16.8701 18.7218 16.7841C18.6575 16.761 18.6192 16.7535 18.6004 16.7511C18.5758 16.77 18.5007 16.8366 18.4351 17.175C18.365 17.5368 18.3341 18.0434 18.2891 18.8211C18.2649 19.2399 18.25 19.6435 18.25 20C18.25 20.3565 18.2649 20.7601 18.2891 21.1789L18.3054 21.4581C18.3424 22.0809 18.3738 22.5084 18.4351 22.825C18.5007 23.1632 18.5757 23.2299 18.6003 23.2488C18.6191 23.2464 18.6574 23.239 18.7218 23.2159C18.9312 23.1406 19.2065 22.9831 19.651 22.7144L19.8522 22.5924C20.1215 22.4286 20.3755 22.2655 20.5952 22.1113L20.6425 22.0778C20.8808 21.9082 21.1431 21.7047 21.4134 21.4841L21.4135 21.484C21.9721 21.0283 22.3127 20.747 22.5279 20.4964C22.7108 20.2833 22.75 20.1532 22.75 20ZM24.25 20C24.25 20.5966 24.0204 21.0607 23.6659 21.4736C23.3436 21.8489 22.878 22.2252 22.3617 22.6463C22.0758 22.8796 21.786 23.1051 21.5117 23.3003L21.457 23.3389C21.2021 23.5179 20.9187 23.6994 20.6316 23.874L20.6316 23.874C20.1249 24.1821 19.646 24.4777 19.2289 24.6275C19.0061 24.7076 18.7505 24.7663 18.4754 24.7459C18.1864 24.7244 17.9277 24.6195 17.7021 24.4502C17.2431 24.1056 17.0587 23.6066 16.9625 23.1104C16.8804 22.6867 16.8436 22.1538 16.8073 21.5356L16.7916 21.2655C16.7664 20.8293 16.75 20.3949 16.75 20C16.75 19.6051 16.7664 19.1707 16.7916 18.7345C16.8341 18.0007 16.8687 17.3738 16.9625 16.8896C17.0587 16.3934 17.2431 15.8944 17.7021 15.5498C17.9276 15.3805 18.1864 15.2756 18.4754 15.2541C18.7504 15.2336 19.0061 15.2924 19.2289 15.3724C19.646 15.5223 20.1249 15.8179 20.6316 16.126H20.6316C20.9187 16.3006 21.2022 16.4821 21.457 16.6611C21.7473 16.8649 22.0568 17.1049 22.3617 17.3537L22.5527 17.5096C22.9921 17.8689 23.3839 18.198 23.6659 18.5264C24.0204 18.9393 24.25 19.4033 24.25 20Z" fill="#5D2CFF"/>
</svg>
